<svg id="SvgjsSvg1000" xmlns="http://www.w3.org/2000/svg" version="1.1" xmlns:xlink="http://www.w3.org/1999/xlink" xmlns:svgjs="http://svgjs.com/svgjs" width="944.078125" height="620.046875"><defs id="SvgjsDefs1001"><marker id="SvgjsMarker1033" markerWidth="16" markerHeight="12" refX="16" refY="6" viewBox="0 0 16 12" orient="auto" markerUnits="userSpaceOnUse" stroke-dasharray="0,0"><path id="SvgjsPath1034" d="M0 2L14 6L0 11L0 2 " fill="#323232" stroke="#323232" stroke-width="2"></path></marker><marker id="SvgjsMarker1053" markerWidth="16" markerHeight="12" refX="16" refY="6" viewBox="0 0 16 12" orient="auto" markerUnits="userSpaceOnUse" stroke-dasharray="0,0"><path id="SvgjsPath1054" d="M0 2L14 6L0 11L0 2 " fill="#323232" stroke="#323232" stroke-width="2"></path></marker><marker id="SvgjsMarker1073" markerWidth="16" markerHeight="12" refX="16" refY="6" viewBox="0 0 16 12" orient="auto" markerUnits="userSpaceOnUse" stroke-dasharray="0,0"><path id="SvgjsPath1074" d="M0 2L14 6L0 11L0 2 " fill="#323232" stroke="#323232" stroke-width="2"></path></marker><marker id="SvgjsMarker1087" markerWidth="16" markerHeight="12" refX="16" refY="6" viewBox="0 0 16 12" orient="auto" markerUnits="userSpaceOnUse" stroke-dasharray="0,0"><path id="SvgjsPath1088" d="M0 2L14 6L0 11L0 2 " fill="#323232" stroke="#323232" stroke-width="2"></path></marker><marker id="SvgjsMarker1095" markerWidth="16" markerHeight="12" refX="16" refY="6" viewBox="0 0 16 12" orient="auto" markerUnits="userSpaceOnUse" stroke-dasharray="0,0"><path id="SvgjsPath1096" d="M0 2L14 6L0 11L0 2 " fill="#323232" stroke="#323232" stroke-width="2"></path></marker><marker id="SvgjsMarker1103" markerWidth="16" markerHeight="12" refX="16" refY="6" viewBox="0 0 16 12" orient="auto" markerUnits="userSpaceOnUse" stroke-dasharray="0,0"><path id="SvgjsPath1104" d="M0 2L14 6L0 11L0 2 " fill="#323232" stroke="#323232" stroke-width="2"></path></marker><marker id="SvgjsMarker1111" markerWidth="16" markerHeight="12" refX="16" refY="6" viewBox="0 0 16 12" orient="auto" markerUnits="userSpaceOnUse" stroke-dasharray="0,0"><path id="SvgjsPath1112" d="M0 2L14 6L0 11L0 2 " fill="#323232" stroke="#323232" stroke-width="2"></path></marker><marker id="SvgjsMarker1119" markerWidth="16" markerHeight="12" refX="16" refY="6" viewBox="0 0 16 12" orient="auto" markerUnits="userSpaceOnUse" stroke-dasharray="0,0"><path id="SvgjsPath1120" d="M0 2L14 6L0 11L0 2 " fill="#323232" stroke="#323232" stroke-width="2"></path></marker><marker id="SvgjsMarker1127" markerWidth="16" markerHeight="12" refX="16" refY="6" viewBox="0 0 16 12" orient="auto" markerUnits="userSpaceOnUse" stroke-dasharray="0,0"><path id="SvgjsPath1128" d="M0 2L14 6L0 11L0 2 " fill="#323232" stroke="#323232" stroke-width="2"></path></marker><marker id="SvgjsMarker1131" markerWidth="16" markerHeight="12" refX="16" refY="6" viewBox="0 0 16 12" orient="auto" markerUnits="userSpaceOnUse" stroke-dasharray="0,0"><path id="SvgjsPath1132" d="M0 2L14 6L0 11L0 2 " fill="#323232" stroke="#323232" stroke-width="2"></path></marker><marker id="SvgjsMarker1135" markerWidth="16" markerHeight="12" refX="16" refY="6" viewBox="0 0 16 12" orient="auto" markerUnits="userSpaceOnUse" stroke-dasharray="0,0"><path id="SvgjsPath1136" d="M0 2L14 6L0 11L0 2 " fill="#323232" stroke="#323232" stroke-width="2"></path></marker><marker id="SvgjsMarker1143" markerWidth="16" markerHeight="12" refX="16" refY="6" viewBox="0 0 16 12" orient="auto" markerUnits="userSpaceOnUse" stroke-dasharray="0,0"><path id="SvgjsPath1144" d="M0 2L14 6L0 11L0 2 " fill="#323232" stroke="#323232" stroke-width="2"></path></marker><marker id="SvgjsMarker1147" markerWidth="16" markerHeight="12" refX="16" refY="6" viewBox="0 0 16 12" orient="auto" markerUnits="userSpaceOnUse" stroke-dasharray="0,0"><path id="SvgjsPath1148" d="M0 2L14 6L0 11L0 2 " fill="#323232" stroke="#323232" stroke-width="2"></path></marker><marker id="SvgjsMarker1151" markerWidth="16" markerHeight="12" refX="16" refY="6" viewBox="0 0 16 12" orient="auto" markerUnits="userSpaceOnUse" stroke-dasharray="0,0"><path id="SvgjsPath1152" d="M0 2L14 6L0 11L0 2 " fill="#323232" stroke="#323232" stroke-width="2"></path></marker><marker id="SvgjsMarker1159" markerWidth="16" markerHeight="12" refX="16" refY="6" viewBox="0 0 16 12" orient="auto" markerUnits="userSpaceOnUse" stroke-dasharray="0,0"><path id="SvgjsPath1160" d="M0 2L14 6L0 11L0 2 " fill="#323232" stroke="#323232" stroke-width="2"></path></marker><marker id="SvgjsMarker1167" markerWidth="16" markerHeight="12" refX="16" refY="6" viewBox="0 0 16 12" orient="auto" markerUnits="userSpaceOnUse" stroke-dasharray="0,0"><path id="SvgjsPath1168" d="M0 2L14 6L0 11L0 2 " fill="#323232" stroke="#323232" stroke-width="2"></path></marker><marker id="SvgjsMarker1171" markerWidth="16" markerHeight="12" refX="16" refY="6" viewBox="0 0 16 12" orient="auto" markerUnits="userSpaceOnUse" stroke-dasharray="0,0"><path id="SvgjsPath1172" d="M0 2L14 6L0 11L0 2 " fill="#323232" stroke="#323232" stroke-width="2"></path></marker><marker id="SvgjsMarker1267" markerWidth="16" markerHeight="12" refX="16" refY="6" viewBox="0 0 16 12" orient="auto" markerUnits="userSpaceOnUse" stroke-dasharray="0,0"><path id="SvgjsPath1268" d="M0 2L14 6L0 11L0 2 " fill="#323232" stroke="#323232" stroke-width="2"></path></marker><marker id="SvgjsMarker1271" markerWidth="16" markerHeight="12" refX="16" refY="6" viewBox="0 0 16 12" orient="auto" markerUnits="userSpaceOnUse" stroke-dasharray="0,0"><path id="SvgjsPath1272" d="M0 2L14 6L0 11L0 2 " fill="#323232" stroke="#323232" stroke-width="2"></path></marker><marker id="SvgjsMarker1321" markerWidth="16" markerHeight="12" refX="16" refY="6" viewBox="0 0 16 12" orient="auto" markerUnits="userSpaceOnUse" stroke-dasharray="0,0"><path id="SvgjsPath1322" d="M0 2L14 6L0 11L0 2 " fill="#323232" stroke="#323232" stroke-width="2"></path></marker><marker id="SvgjsMarker1325" markerWidth="16" markerHeight="12" refX="16" refY="6" viewBox="0 0 16 12" orient="auto" markerUnits="userSpaceOnUse" stroke-dasharray="0,0"><path id="SvgjsPath1326" d="M0 2L14 6L0 11L0 2 " fill="#323232" stroke="#323232" stroke-width="2"></path></marker><marker id="SvgjsMarker1329" markerWidth="16" markerHeight="12" refX="16" refY="6" viewBox="0 0 16 12" orient="auto" markerUnits="userSpaceOnUse" stroke-dasharray="0,0"><path id="SvgjsPath1330" d="M0 2L14 6L0 11L0 2 " fill="#323232" stroke="#323232" stroke-width="2"></path></marker><marker id="SvgjsMarker1333" markerWidth="16" markerHeight="12" refX="16" refY="6" viewBox="0 0 16 12" orient="auto" markerUnits="userSpaceOnUse" stroke-dasharray="0,0"><path id="SvgjsPath1334" d="M0 2L14 6L0 11L0 2 " fill="#323232" stroke="#323232" stroke-width="2"></path></marker><marker id="SvgjsMarker1337" markerWidth="16" markerHeight="12" refX="16" refY="6" viewBox="0 0 16 12" orient="auto" markerUnits="userSpaceOnUse" stroke-dasharray="0,0"><path id="SvgjsPath1338" d="M0 2L14 6L0 11L0 2 " fill="#323232" stroke="#323232" stroke-width="2"></path></marker><marker id="SvgjsMarker1341" markerWidth="16" markerHeight="12" refX="16" refY="6" viewBox="0 0 16 12" orient="auto" markerUnits="userSpaceOnUse" stroke-dasharray="0,0"><path id="SvgjsPath1342" d="M0 2L14 6L0 11L0 2 " fill="#323232" stroke="#323232" stroke-width="2"></path></marker></defs><g id="SvgjsG1007" transform="translate(115.54149210479005,298.089006274497)"><path id="SvgjsPath1008" d="M0 0L91.4488017429194 0L91.4488017429194 56.89354297385355L0 56.89354297385355Z " stroke="rgba(50,50,50,1)" stroke-width="2" fill-opacity="1" fill="#ffffff"></path><g id="SvgjsG1009"><text id="SvgjsText1010" font-family="微软雅黑" text-anchor="middle" font-size="13px" width="72px" fill="#323232" font-weight="400" align="middle" lineHeight="125%" font-style="" opacity="1" y="18.821771486926774" transform="rotate(0)"><tspan id="SvgjsTspan1011" dy="16" x="46"><tspan id="SvgjsTspan1012" style="text-decoration:;">worker_A</tspan></tspan></text></g></g><g id="SvgjsG1013" transform="translate(789.519160950106,298.089006274497)"><path id="SvgjsPath1014" d="M0 0L91.4488017429194 0L91.4488017429194 56.89354297385355L0 56.89354297385355Z " stroke="rgba(50,50,50,1)" stroke-width="2" fill-opacity="1" fill="#ffffff"></path><g id="SvgjsG1015"><text id="SvgjsText1016" font-family="微软雅黑" text-anchor="middle" font-size="13px" width="72px" fill="#323232" font-weight="400" align="middle" lineHeight="125%" font-style="" opacity="1" y="18.821771486926774" transform="rotate(0)"><tspan id="SvgjsTspan1017" dy="16" x="46"><tspan id="SvgjsTspan1018" style="text-decoration:;">worker_B</tspan></tspan></text></g></g><g id="SvgjsG1019" transform="translate(431.95434613529113,25)"><path id="SvgjsPath1020" d="M0 0L114.31100217864923 0L114.31100217864923 16.255297992529584L0 16.255297992529584Z " stroke="rgba(50,50,50,1)" stroke-width="2" fill-opacity="1" fill="#ffffff"></path><g id="SvgjsG1021"><text id="SvgjsText1022" font-family="微软雅黑" text-anchor="middle" font-size="13px" width="95px" fill="#323232" font-weight="400" align="middle" lineHeight="125%" font-style="" opacity="1" y="-1.4973510037352078" transform="rotate(0)"><tspan id="SvgjsTspan1023" dy="16" x="57.5"><tspan id="SvgjsTspan1024" style="text-decoration:;">cmd输入请求</tspan></tspan></text></g></g><g id="SvgjsG1025" transform="translate(443.3854463531561,69.70206947945636)"><path id="SvgjsPath1026" d="M0 0L91.4488017429194 0L91.4488017429194 56.89354297385355L0 56.89354297385355Z " stroke="rgba(50,50,50,1)" stroke-width="2" fill-opacity="1" fill="#ffffff"></path><g id="SvgjsG1027"><text id="SvgjsText1028" font-family="微软雅黑" text-anchor="middle" font-size="13px" width="72px" fill="#323232" font-weight="400" align="middle" lineHeight="125%" font-style="" opacity="1" y="18.821771486926774" transform="rotate(0)"><tspan id="SvgjsTspan1029" dy="16" x="46"><tspan id="SvgjsTspan1030" style="text-decoration:;">client_v2</tspan></tspan></text></g></g><g id="SvgjsG1031"><path id="SvgjsPath1032" d="M489.1098472246158 41.25529799252959L489.1098472246158 55.47868373599297L489.1098472246158 55.47868373599297L489.1098472246158 69.70206947945636 " stroke="#323232" stroke-width="2" fill="none" marker-end="url(#SvgjsMarker1033)"></path><rect id="SvgjsRect1035" width="82" height="16" x="448.1098472246158" y="47.47868373599297" fill="#ffffff"></rect><text id="SvgjsText1036" font-family="微软雅黑" text-anchor="middle" font-size="13px" width="82px" fill="#323232" font-weight="400" align="top" lineHeight="16px" font-style="" opacity="1" y="45.85368373599297" transform="rotate(0)"><tspan id="SvgjsTspan1037" dy="16" x="489.1098472246158"><tspan id="SvgjsTspan1038" style="text-decoration:;">Send request</tspan></tspan></text></g><g id="SvgjsG1039" transform="translate(567.8472711068612,25)"><path id="SvgjsPath1040" d="M0 0L114.31100217864923 0L114.31100217864923 16.255297992529584L0 16.255297992529584Z " stroke="rgba(50,50,50,1)" stroke-width="2" fill-opacity="1" fill="#ffffff"></path><g id="SvgjsG1041"><text id="SvgjsText1042" font-family="微软雅黑" text-anchor="middle" font-size="13px" width="95px" fill="#323232" font-weight="400" align="middle" lineHeight="125%" font-style="" opacity="1" y="-1.4973510037352078" transform="rotate(0)"><tspan id="SvgjsTspan1043" dy="16" x="57.5"><tspan id="SvgjsTspan1044" style="text-decoration:;">cmd输入请求</tspan></tspan></text></g></g><g id="SvgjsG1045" transform="translate(579.2783713247262,69.70206947945636)"><path id="SvgjsPath1046" d="M0 0L91.4488017429194 0L91.4488017429194 56.89354297385355L0 56.89354297385355Z " stroke="rgba(50,50,50,1)" stroke-width="2" fill-opacity="1" fill="#ffffff"></path><g id="SvgjsG1047"><text id="SvgjsText1048" font-family="微软雅黑" text-anchor="middle" font-size="13px" width="72px" fill="#323232" font-weight="400" align="middle" lineHeight="125%" font-style="" opacity="1" y="18.821771486926774" transform="rotate(0)"><tspan id="SvgjsTspan1049" dy="16" x="46"><tspan id="SvgjsTspan1050" style="text-decoration:;">client_v3</tspan></tspan></text></g></g><g id="SvgjsG1051"><path id="SvgjsPath1052" d="M625.0027721961858 41.25529799252959L625.0027721961858 55.47868373599297L625.0027721961859 55.47868373599297L625.0027721961859 69.70206947945636 " stroke="#323232" stroke-width="2" fill="none" marker-end="url(#SvgjsMarker1053)"></path><rect id="SvgjsRect1055" width="82" height="16" x="584.0027721961858" y="47.47868373599297" fill="#ffffff"></rect><text id="SvgjsText1056" font-family="微软雅黑" text-anchor="middle" font-size="13px" width="82px" fill="#323232" font-weight="400" align="top" lineHeight="16px" font-style="" opacity="1" y="45.85368373599297" transform="rotate(0)"><tspan id="SvgjsTspan1057" dy="16" x="625.0027721961858"><tspan id="SvgjsTspan1058" style="text-decoration:;">Send request</tspan></tspan></text></g><g id="SvgjsG1059" transform="translate(291.6718898432447,25)"><path id="SvgjsPath1060" d="M0 0L114.31100217864923 0L114.31100217864923 16.255297992529584L0 16.255297992529584Z " stroke="rgba(50,50,50,1)" stroke-width="2" fill-opacity="1" fill="#ffffff"></path><g id="SvgjsG1061"><text id="SvgjsText1062" font-family="微软雅黑" text-anchor="middle" font-size="13px" width="95px" fill="#323232" font-weight="400" align="middle" lineHeight="125%" font-style="" opacity="1" y="-1.4973510037352078" transform="rotate(0)"><tspan id="SvgjsTspan1063" dy="16" x="57.5"><tspan id="SvgjsTspan1064" style="text-decoration:;">cmd输入请求</tspan></tspan></text></g></g><g id="SvgjsG1065" transform="translate(303.1029900611096,69.70206947945636)"><path id="SvgjsPath1066" d="M0 0L91.4488017429194 0L91.4488017429194 56.89354297385355L0 56.89354297385355Z " stroke="rgba(50,50,50,1)" stroke-width="2" fill-opacity="1" fill="#ffffff"></path><g id="SvgjsG1067"><text id="SvgjsText1068" font-family="微软雅黑" text-anchor="middle" font-size="13px" width="72px" fill="#323232" font-weight="400" align="middle" lineHeight="125%" font-style="" opacity="1" y="18.821771486926774" transform="rotate(0)"><tspan id="SvgjsTspan1069" dy="16" x="46"><tspan id="SvgjsTspan1070" style="text-decoration:;">client_v1</tspan></tspan></text></g></g><g id="SvgjsG1071"><path id="SvgjsPath1072" d="M348.8273909325693 41.25529799252959L348.8273909325693 55.47868373599297L348.8273909325693 55.47868373599297L348.8273909325693 69.70206947945636 " stroke="#323232" stroke-width="2" fill="none" marker-end="url(#SvgjsMarker1073)"></path><rect id="SvgjsRect1075" width="82" height="16" x="307.8273909325693" y="47.47868373599297" fill="#ffffff"></rect><text id="SvgjsText1076" font-family="微软雅黑" text-anchor="middle" font-size="13px" width="82px" fill="#323232" font-weight="400" align="top" lineHeight="16px" font-style="" opacity="1" y="45.85368373599297" transform="rotate(0)"><tspan id="SvgjsTspan1077" dy="16" x="348.8273909325693"><tspan id="SvgjsTspan1078" style="text-decoration:;">Send request</tspan></tspan></text></g><g id="SvgjsG1079" transform="translate(443.3854463531561,172.2729973319564)"><path id="SvgjsPath1080" d="M0 0L91.4488017429194 0L91.4488017429194 56.89354297385355L0 56.89354297385355Z " stroke="rgba(50,50,50,1)" stroke-width="2" fill-opacity="1" fill="#ffffff"></path><g id="SvgjsG1081"><text id="SvgjsText1082" font-family="微软雅黑" text-anchor="middle" font-size="13px" width="72px" fill="#323232" font-weight="400" align="middle" lineHeight="125%" font-style="" opacity="1" y="18.821771486926774" transform="rotate(0)"><tspan id="SvgjsTspan1083" dy="16" x="46"><tspan id="SvgjsTspan1084" style="text-decoration:;">master</tspan></tspan></text></g></g><g id="SvgjsG1085"><path id="SvgjsPath1086" d="M489.1098472246158 126.59561245330991L489.1098472246158 149.43430489263312L489.1098472246158 149.43430489263312L489.1098472246158 172.2729973319564 " stroke="#323232" stroke-width="2" fill="none" marker-end="url(#SvgjsMarker1087)"></path><rect id="SvgjsRect1089" width="65" height="16" x="456.6098472246158" y="141.43430489263318" fill="#ffffff"></rect><text id="SvgjsText1090" font-family="微软雅黑" text-anchor="middle" font-size="13px" width="65px" fill="#323232" font-weight="400" align="top" lineHeight="16px" font-style="" opacity="1" y="139.80930489263318" transform="rotate(0)"><tspan id="SvgjsTspan1091" dy="16" x="489.1098472246158"><tspan id="SvgjsTspan1092" style="text-decoration:;">注册、登录</tspan></tspan></text></g><g id="SvgjsG1093"><path id="SvgjsPath1094" d="M348.8273909325693 126.59561245330991L348.8273909325693 200.71976881888315L443.3854463531561 200.71976881888315 " stroke="#323232" stroke-width="2" fill="none" marker-end="url(#SvgjsMarker1095)"></path><rect id="SvgjsRect1097" width="65" height="16" x="326.54434046007606" y="192.71976881888315" fill="#ffffff"></rect><text id="SvgjsText1098" font-family="微软雅黑" text-anchor="middle" font-size="13px" width="65px" fill="#323232" font-weight="400" align="top" lineHeight="16px" font-style="" opacity="1" y="191.09476881888315" transform="rotate(0)"><tspan id="SvgjsTspan1099" dy="16" x="359.04434046007606"><tspan id="SvgjsTspan1100" style="text-decoration:;">注册、登录</tspan></tspan></text></g><g id="SvgjsG1101"><path id="SvgjsPath1102" d="M625.0027721961859 126.59561245330991L625.0027721961859 200.71976881888315L534.8342480960755 200.71976881888315 " stroke="#323232" stroke-width="2" fill="none" marker-end="url(#SvgjsMarker1103)"></path><rect id="SvgjsRect1105" width="65" height="16" x="584.4805883289174" y="192.71976881888318" fill="#ffffff"></rect><text id="SvgjsText1106" font-family="微软雅黑" text-anchor="middle" font-size="13px" width="65px" fill="#323232" font-weight="400" align="top" lineHeight="16px" font-style="" opacity="1" y="191.09476881888318" transform="rotate(0)"><tspan id="SvgjsTspan1107" dy="16" x="616.9805883289174"><tspan id="SvgjsTspan1108" style="text-decoration:;">注册、登录</tspan></tspan></text></g><g id="SvgjsG1109"><path id="SvgjsPath1110" d="M303.1029900611096 98.14884096638312L161.26589297624975 98.14884096638312L161.26589297624975 298.089006274497 " stroke="#323232" stroke-width="2" fill="none" marker-end="url(#SvgjsMarker1111)"></path><rect id="SvgjsRect1113" width="91" height="16" x="115.76589297624975" y="119.20037507801013" fill="#ffffff"></rect><text id="SvgjsText1114" font-family="微软雅黑" text-anchor="middle" font-size="13px" width="91px" fill="#323232" font-weight="400" align="top" lineHeight="16px" font-style="" opacity="1" y="117.57537507801013" transform="rotate(0)"><tspan id="SvgjsTspan1115" dy="16" x="161.26589297624975"><tspan id="SvgjsTspan1116" style="text-decoration:;">业务请求、响应</tspan></tspan></text></g><g id="SvgjsG1117"><path id="SvgjsPath1118" d="M670.7271730676456 98.14884096638312L835.2435618215657 98.14884096638312L835.2435618215657 298.089006274497 " stroke="#323232" stroke-width="2" fill="none" marker-end="url(#SvgjsMarker1119)"></path><rect id="SvgjsRect1121" width="52" height="16" x="809.2435618215658" y="107.86072924348005" fill="#ffffff"></rect><text id="SvgjsText1122" font-family="微软雅黑" text-anchor="middle" font-size="13px" width="52px" fill="#323232" font-weight="400" align="top" lineHeight="16px" font-style="" opacity="1" y="106.23572924348005" transform="rotate(0)"><tspan id="SvgjsTspan1123" dy="16" x="835.2435618215658"><tspan id="SvgjsTspan1124" style="text-decoration:;">业务请求</tspan></tspan></text></g><g id="SvgjsG1125"><path id="SvgjsPath1126" d="M443.3854463531561 200.71976881888315L348.8273909325693 200.71976881888315L348.8273909325693 126.59561245330991 " stroke="#323232" stroke-width="2" fill="none" marker-end="url(#SvgjsMarker1127)"></path></g><g id="SvgjsG1129"><path id="SvgjsPath1130" d="M161.26589297624975 298.089006274497L161.26589297624975 98.14884096638312L303.1029900611096 98.14884096638312 " stroke="#323232" stroke-width="2" fill="none" marker-end="url(#SvgjsMarker1131)"></path></g><g id="SvgjsG1133"><path id="SvgjsPath1134" d="M835.2435618215657 298.089006274497L835.2435618215657 98.14884096638312L670.7271730676456 98.14884096638312 " stroke="#323232" stroke-width="2" fill="none" marker-end="url(#SvgjsMarker1135)"></path><rect id="SvgjsRect1137" width="91" height="16" x="789.7435618215657" y="107.86072924348002" fill="#ffffff"></rect><text id="SvgjsText1138" font-family="微软雅黑" text-anchor="middle" font-size="13px" width="91px" fill="#323232" font-weight="400" align="top" lineHeight="16px" font-style="" opacity="1" y="106.23572924348002" transform="rotate(0)"><tspan id="SvgjsTspan1139" dy="16" x="835.2435618215657"><tspan id="SvgjsTspan1140" style="text-decoration:;">业务请求、响应</tspan></tspan></text></g><g id="SvgjsG1141"><path id="SvgjsPath1142" d="M448.14079520697175 228.35377540618344L448.14079520697175 326.5357777614238L206.99029384770944 326.5357777614238 " stroke="#323232" stroke-width="2" fill="none" marker-end="url(#SvgjsMarker1143)"></path></g><g id="SvgjsG1145"><path id="SvgjsPath1146" d="M528.6157407407408 229.16654030580992L528.6157407407408 326.5357777614238L789.519160950106 326.5357777614238 " stroke="#323232" stroke-width="2" fill="none" marker-end="url(#SvgjsMarker1147)"></path></g><g id="SvgjsG1149"><path id="SvgjsPath1150" d="M206.99029384770944 326.5357777614238L448.14079520697175 326.5357777614238L448.14079520697175 229.16654030580992 " stroke="#323232" stroke-width="2" fill="none" marker-end="url(#SvgjsMarker1151)"></path><rect id="SvgjsRect1153" width="52" height="16" x="350.2501632551475" y="318.5357777614238" fill="#ffffff"></rect><text id="SvgjsText1154" font-family="微软雅黑" text-anchor="middle" font-size="13px" width="52px" fill="#323232" font-weight="400" align="top" lineHeight="16px" font-style="" opacity="1" y="316.9107777614238" transform="rotate(0)"><tspan id="SvgjsTspan1155" dy="16" x="376.2501632551475"><tspan id="SvgjsTspan1156" style="text-decoration:;">集群管理</tspan></tspan></text></g><g id="SvgjsG1157"><path id="SvgjsPath1158" d="M789.519160950106 326.5357777614238L528.3790538253121 326.5357777614238L528.3790538253121 227.56870479893297 " stroke="#323232" stroke-width="2" fill="none" marker-end="url(#SvgjsMarker1159)"></path><rect id="SvgjsRect1161" width="52" height="16" x="583.4655709064637" y="318.5357777614238" fill="#ffffff"></rect><text id="SvgjsText1162" font-family="微软雅黑" text-anchor="middle" font-size="13px" width="52px" fill="#323232" font-weight="400" align="top" lineHeight="16px" font-style="" opacity="1" y="316.9107777614238" transform="rotate(0)"><tspan id="SvgjsTspan1163" dy="16" x="609.4655709064637"><tspan id="SvgjsTspan1164" style="text-decoration:;">集群管理</tspan></tspan></text></g><g id="SvgjsG1165"><path id="SvgjsPath1166" d="M489.1098472246158 172.2729973319564L489.1098472246158 149.43430489263312L489.1098472246158 149.43430489263312L489.1098472246158 126.59561245330991 " stroke="#323232" stroke-width="2" fill="none" marker-end="url(#SvgjsMarker1167)"></path></g><g id="SvgjsG1169"><path id="SvgjsPath1170" d="M534.8342480960755 200.71976881888315L625.0027721961859 200.71976881888315L625.0027721961859 126.59561245330991 " stroke="#323232" stroke-width="2" fill="none" marker-end="url(#SvgjsMarker1171)"></path></g><g id="SvgjsG1173" transform="translate(338.3083766363805,478.21856061322717)"><path id="SvgjsPath1174" d="M0 4Q0 0 4 0L267.6029411764706 0Q271.6029411764706 0 271.6029411764706 4L271.6029411764706 109.7870859477071Q271.6029411764706 113.7870859477071 267.6029411764706 113.7870859477071L4 113.7870859477071Q0 113.7870859477071 0 109.7870859477071Z " stroke="rgba(50,50,50,1)" stroke-width="2" fill-opacity="1" fill="#ffffff"></path><g id="SvgjsG1175"><text id="SvgjsText1176" font-family="微软雅黑" text-anchor="middle" font-size="13px" width="252px" fill="#323232" font-weight="400" align="middle" lineHeight="125%" font-style="" opacity="1" y="47.26854297385355" transform="rotate(0)"></text></g></g><g id="SvgjsG1177" transform="translate(353.58033769063184,510.94430024818746)"><path id="SvgjsPath1178" d="M0 0L70.41557734204794 0L70.41557734204794 57.120639048749176L0 57.120639048749176Z " stroke="rgba(50,50,50,1)" stroke-width="2" fill-opacity="1" fill="#ffffff"></path><g id="SvgjsG1179"><text id="SvgjsText1180" font-family="微软雅黑" text-anchor="middle" font-size="13px" width="51px" fill="#323232" font-weight="400" align="middle" lineHeight="125%" font-style="" opacity="1" y="18.935319524374588" transform="rotate(0)"><tspan id="SvgjsTspan1181" dy="16" x="35.5"><tspan id="SvgjsTspan1182" style="text-decoration:;">mysql</tspan></tspan></text></g></g><g id="SvgjsG1183" transform="translate(353.58033769063184,507.07171454996717)"><path id="SvgjsPath1184" d="M0 4.840732122775354C0 -1.6135773742584514 70.41557734204794 -1.6135773742584514 70.41557734204794 4.840732122775354C70.41557734204794 11.29504161980916 0 11.29504161980916 0 4.840732122775354Z " stroke="rgba(50,50,50,1)" stroke-width="2" fill-opacity="1" fill="#ffffff"></path><g id="SvgjsG1185"><text id="SvgjsText1186" font-family="微软雅黑" text-anchor="middle" font-size="13px" width="51px" fill="#323232" font-weight="400" align="middle" lineHeight="125%" font-style="" opacity="1" y="-4.784267877224646" transform="rotate(0)"></text></g></g><g id="SvgjsG1187" transform="translate(353.58033769063184,563.2242071741614)"><path id="SvgjsPath1188" d="M0 4.840732122775354C0 -1.6135773742584514 70.41557734204794 -1.6135773742584514 70.41557734204794 4.840732122775354C70.41557734204794 11.29504161980916 0 11.29504161980916 0 4.840732122775354Z " stroke="rgba(50,50,50,1)" stroke-width="2" fill-opacity="1" fill="#ffffff"></path><g id="SvgjsG1189"><text id="SvgjsText1190" font-family="微软雅黑" text-anchor="middle" font-size="13px" width="51px" fill="#323232" font-weight="400" align="middle" lineHeight="125%" font-style="" opacity="1" y="-4.784267877224646" transform="rotate(0)"></text></g></g><g id="SvgjsG1191" transform="translate(442.2856753812637,497.9400618541637)"><path id="SvgjsPath1192" d="M0 0L70.41557734204794 0L70.41557734204794 57.120639048749176L0 57.120639048749176Z " stroke="rgba(50,50,50,1)" stroke-width="2" fill-opacity="1" fill="#ffffff"></path><g id="SvgjsG1193"><text id="SvgjsText1194" font-family="微软雅黑" text-anchor="middle" font-size="13px" width="51px" fill="#323232" font-weight="400" align="middle" lineHeight="125%" font-style="" opacity="1" y="18.935319524374588" transform="rotate(0)"><tspan id="SvgjsTspan1195" dy="16" x="35.5"><tspan id="SvgjsTspan1196" style="text-decoration:;">mysql</tspan></tspan></text></g></g><g id="SvgjsG1197" transform="translate(442.2856753812637,494.0674761559435)"><path id="SvgjsPath1198" d="M0 4.840732122775354C0 -1.6135773742584514 70.41557734204794 -1.6135773742584514 70.41557734204794 4.840732122775354C70.41557734204794 11.29504161980916 0 11.29504161980916 0 4.840732122775354Z " stroke="rgba(50,50,50,1)" stroke-width="2" fill-opacity="1" fill="#ffffff"></path><g id="SvgjsG1199"><text id="SvgjsText1200" font-family="微软雅黑" text-anchor="middle" font-size="13px" width="51px" fill="#323232" font-weight="400" align="middle" lineHeight="125%" font-style="" opacity="1" y="-4.784267877224646" transform="rotate(0)"></text></g></g><g id="SvgjsG1201" transform="translate(442.2856753812637,550.2199687801377)"><path id="SvgjsPath1202" d="M0 4.840732122775354C0 -1.6135773742584514 70.41557734204794 -1.6135773742584514 70.41557734204794 4.840732122775354C70.41557734204794 11.29504161980916 0 11.29504161980916 0 4.840732122775354Z " stroke="rgba(50,50,50,1)" stroke-width="2" fill-opacity="1" fill="#ffffff"></path><g id="SvgjsG1203"><text id="SvgjsText1204" font-family="微软雅黑" text-anchor="middle" font-size="13px" width="51px" fill="#323232" font-weight="400" align="middle" lineHeight="125%" font-style="" opacity="1" y="-4.784267877224646" transform="rotate(0)"></text></g></g><g id="SvgjsG1205" transform="translate(534.6489651416123,510.94430024818746)"><path id="SvgjsPath1206" d="M0 0L70.41557734204794 0L70.41557734204794 57.120639048749176L0 57.120639048749176Z " stroke="rgba(50,50,50,1)" stroke-width="2" fill-opacity="1" fill="#ffffff"></path><g id="SvgjsG1207"><text id="SvgjsText1208" font-family="微软雅黑" text-anchor="middle" font-size="13px" width="51px" fill="#323232" font-weight="400" align="middle" lineHeight="125%" font-style="" opacity="1" y="18.935319524374588" transform="rotate(0)"><tspan id="SvgjsTspan1209" dy="16" x="35.5"><tspan id="SvgjsTspan1210" style="text-decoration:;">mysql</tspan></tspan></text></g></g><g id="SvgjsG1211" transform="translate(534.6489651416123,507.07171454996717)"><path id="SvgjsPath1212" d="M0 4.840732122775354C0 -1.6135773742584514 70.41557734204794 -1.6135773742584514 70.41557734204794 4.840732122775354C70.41557734204794 11.29504161980916 0 11.29504161980916 0 4.840732122775354Z " stroke="rgba(50,50,50,1)" stroke-width="2" fill-opacity="1" fill="#ffffff"></path><g id="SvgjsG1213"><text id="SvgjsText1214" font-family="微软雅黑" text-anchor="middle" font-size="13px" width="51px" fill="#323232" font-weight="400" align="middle" lineHeight="125%" font-style="" opacity="1" y="-4.784267877224646" transform="rotate(0)"></text></g></g><g id="SvgjsG1215" transform="translate(534.6489651416123,563.2242071741614)"><path id="SvgjsPath1216" d="M0 4.840732122775354C0 -1.6135773742584514 70.41557734204794 -1.6135773742584514 70.41557734204794 4.840732122775354C70.41557734204794 11.29504161980916 0 11.29504161980916 0 4.840732122775354Z " stroke="rgba(50,50,50,1)" stroke-width="2" fill-opacity="1" fill="#ffffff"></path><g id="SvgjsG1217"><text id="SvgjsText1218" font-family="微软雅黑" text-anchor="middle" font-size="13px" width="51px" fill="#323232" font-weight="400" align="middle" lineHeight="125%" font-style="" opacity="1" y="-4.784267877224646" transform="rotate(0)"></text></g></g><g id="SvgjsG1219" transform="translate(647.8970588235293,481.05929273600236)"><path id="SvgjsPath1220" d="M0 4Q0 0 4 0L267.6029411764706 0Q271.6029411764706 0 271.6029411764706 4L271.6029411764706 109.7870859477071Q271.6029411764706 113.7870859477071 267.6029411764706 113.7870859477071L4 113.7870859477071Q0 113.7870859477071 0 109.7870859477071Z " stroke="rgba(50,50,50,1)" stroke-width="2" fill-opacity="1" fill="#ffffff"></path><g id="SvgjsG1221"><text id="SvgjsText1222" font-family="微软雅黑" text-anchor="middle" font-size="13px" width="252px" fill="#323232" font-weight="400" align="middle" lineHeight="125%" font-style="" opacity="1" y="47.26854297385355" transform="rotate(0)"></text></g></g><g id="SvgjsG1223" transform="translate(669.3875272331154,513.7850323709627)"><path id="SvgjsPath1224" d="M0 0L70.41557734204794 0L70.41557734204794 57.120639048749176L0 57.120639048749176Z " stroke="rgba(50,50,50,1)" stroke-width="2" fill-opacity="1" fill="#ffffff"></path><g id="SvgjsG1225"><text id="SvgjsText1226" font-family="微软雅黑" text-anchor="middle" font-size="13px" width="51px" fill="#323232" font-weight="400" align="middle" lineHeight="125%" font-style="" opacity="1" y="18.935319524374588" transform="rotate(0)"><tspan id="SvgjsTspan1227" dy="16" x="35.5"><tspan id="SvgjsTspan1228" style="text-decoration:;">gfs</tspan></tspan></text></g></g><g id="SvgjsG1229" transform="translate(669.3875272331154,509.91244667274236)"><path id="SvgjsPath1230" d="M0 4.840732122775354C0 -1.6135773742584514 70.41557734204794 -1.6135773742584514 70.41557734204794 4.840732122775354C70.41557734204794 11.29504161980916 0 11.29504161980916 0 4.840732122775354Z " stroke="rgba(50,50,50,1)" stroke-width="2" fill-opacity="1" fill="#ffffff"></path><g id="SvgjsG1231"><text id="SvgjsText1232" font-family="微软雅黑" text-anchor="middle" font-size="13px" width="51px" fill="#323232" font-weight="400" align="middle" lineHeight="125%" font-style="" opacity="1" y="-4.784267877224646" transform="rotate(0)"></text></g></g><g id="SvgjsG1233" transform="translate(669.3875272331154,566.0649392969366)"><path id="SvgjsPath1234" d="M0 4.840732122775354C0 -1.6135773742584514 70.41557734204794 -1.6135773742584514 70.41557734204794 4.840732122775354C70.41557734204794 11.29504161980916 0 11.29504161980916 0 4.840732122775354Z " stroke="rgba(50,50,50,1)" stroke-width="2" fill-opacity="1" fill="#ffffff"></path><g id="SvgjsG1235"><text id="SvgjsText1236" font-family="微软雅黑" text-anchor="middle" font-size="13px" width="51px" fill="#323232" font-weight="400" align="middle" lineHeight="125%" font-style="" opacity="1" y="-4.784267877224646" transform="rotate(0)"></text></g></g><g id="SvgjsG1237" transform="translate(768.1522331154683,500.78079397693887)"><path id="SvgjsPath1238" d="M0 0L70.41557734204794 0L70.41557734204794 57.120639048749176L0 57.120639048749176Z " stroke="rgba(50,50,50,1)" stroke-width="2" fill-opacity="1" fill="#ffffff"></path><g id="SvgjsG1239"><text id="SvgjsText1240" font-family="微软雅黑" text-anchor="middle" font-size="13px" width="51px" fill="#323232" font-weight="400" align="middle" lineHeight="125%" font-style="" opacity="1" y="18.935319524374588" transform="rotate(0)"><tspan id="SvgjsTspan1241" dy="16" x="35.5"><tspan id="SvgjsTspan1242" style="text-decoration:;">gfs</tspan></tspan></text></g></g><g id="SvgjsG1243" transform="translate(768.1522331154683,496.9082082787187)"><path id="SvgjsPath1244" d="M0 4.840732122775354C0 -1.6135773742584514 70.41557734204794 -1.6135773742584514 70.41557734204794 4.840732122775354C70.41557734204794 11.29504161980916 0 11.29504161980916 0 4.840732122775354Z " stroke="rgba(50,50,50,1)" stroke-width="2" fill-opacity="1" fill="#ffffff"></path><g id="SvgjsG1245"><text id="SvgjsText1246" font-family="微软雅黑" text-anchor="middle" font-size="13px" width="51px" fill="#323232" font-weight="400" align="middle" lineHeight="125%" font-style="" opacity="1" y="-4.784267877224646" transform="rotate(0)"></text></g></g><g id="SvgjsG1247" transform="translate(768.1522331154683,553.0607009029128)"><path id="SvgjsPath1248" d="M0 4.840732122775354C0 -1.6135773742584514 70.41557734204794 -1.6135773742584514 70.41557734204794 4.840732122775354C70.41557734204794 11.29504161980916 0 11.29504161980916 0 4.840732122775354Z " stroke="rgba(50,50,50,1)" stroke-width="2" fill-opacity="1" fill="#ffffff"></path><g id="SvgjsG1249"><text id="SvgjsText1250" font-family="微软雅黑" text-anchor="middle" font-size="13px" width="51px" fill="#323232" font-weight="400" align="middle" lineHeight="125%" font-style="" opacity="1" y="-4.784267877224646" transform="rotate(0)"></text></g></g><g id="SvgjsG1251" transform="translate(849.084422657952,513.7850323709627)"><path id="SvgjsPath1252" d="M0 0L70.41557734204794 0L70.41557734204794 57.120639048749176L0 57.120639048749176Z " stroke="rgba(50,50,50,1)" stroke-width="2" fill-opacity="1" fill="#ffffff"></path><g id="SvgjsG1253"><text id="SvgjsText1254" font-family="微软雅黑" text-anchor="middle" font-size="13px" width="51px" fill="#323232" font-weight="400" align="middle" lineHeight="125%" font-style="" opacity="1" y="18.935319524374588" transform="rotate(0)"><tspan id="SvgjsTspan1255" dy="16" x="35.5"><tspan id="SvgjsTspan1256" style="text-decoration:;">gfs</tspan></tspan></text></g></g><g id="SvgjsG1257" transform="translate(849.084422657952,509.91244667274236)"><path id="SvgjsPath1258" d="M0 4.840732122775354C0 -1.6135773742584514 70.41557734204794 -1.6135773742584514 70.41557734204794 4.840732122775354C70.41557734204794 11.29504161980916 0 11.29504161980916 0 4.840732122775354Z " stroke="rgba(50,50,50,1)" stroke-width="2" fill-opacity="1" fill="#ffffff"></path><g id="SvgjsG1259"><text id="SvgjsText1260" font-family="微软雅黑" text-anchor="middle" font-size="13px" width="51px" fill="#323232" font-weight="400" align="middle" lineHeight="125%" font-style="" opacity="1" y="-4.784267877224646" transform="rotate(0)"></text></g></g><g id="SvgjsG1261" transform="translate(849.084422657952,566.0649392969366)"><path id="SvgjsPath1262" d="M0 4.840732122775354C0 -1.6135773742584514 70.41557734204794 -1.6135773742584514 70.41557734204794 4.840732122775354C70.41557734204794 11.29504161980916 0 11.29504161980916 0 4.840732122775354Z " stroke="rgba(50,50,50,1)" stroke-width="2" fill-opacity="1" fill="#ffffff"></path><g id="SvgjsG1263"><text id="SvgjsText1264" font-family="微软雅黑" text-anchor="middle" font-size="13px" width="51px" fill="#323232" font-weight="400" align="middle" lineHeight="125%" font-style="" opacity="1" y="-4.784267877224646" transform="rotate(0)"></text></g></g><g id="SvgjsG1265"><path id="SvgjsPath1266" d="M160.8014705882353 481.05929273600236L160.8014705882353 418.02092099217646L161.26589297624975 418.02092099217646L161.26589297624975 354.98254924835055 " stroke="#323232" stroke-width="2" fill="none" marker-end="url(#SvgjsMarker1267)"></path></g><g id="SvgjsG1269"><path id="SvgjsPath1270" d="M161.26589297624975 354.98254924835055L161.26589297624975 418.02092099217646L783.6985294117646 418.02092099217646L783.6985294117646 481.05929273600236 " stroke="#323232" stroke-width="2" fill="none" marker-end="url(#SvgjsMarker1271)"></path></g><g id="SvgjsG1273" transform="translate(25,481.05929273600236)"><path id="SvgjsPath1274" d="M0 4Q0 0 4 0L267.6029411764706 0Q271.6029411764706 0 271.6029411764706 4L271.6029411764706 109.7870859477071Q271.6029411764706 113.7870859477071 267.6029411764706 113.7870859477071L4 113.7870859477071Q0 113.7870859477071 0 109.7870859477071Z " stroke="rgba(50,50,50,1)" stroke-width="2" fill-opacity="1" fill="#ffffff"></path><g id="SvgjsG1275"><text id="SvgjsText1276" font-family="微软雅黑" text-anchor="middle" font-size="13px" width="252px" fill="#323232" font-weight="400" align="middle" lineHeight="125%" font-style="" opacity="1" y="47.26854297385355" transform="rotate(0)"></text></g></g><g id="SvgjsG1277" transform="translate(36.687636165577345,513.7850323709627)"><path id="SvgjsPath1278" d="M0 0L70.41557734204794 0L70.41557734204794 57.120639048749176L0 57.120639048749176Z " stroke="rgba(50,50,50,1)" stroke-width="2" fill-opacity="1" fill="#ffffff"></path><g id="SvgjsG1279"><text id="SvgjsText1280" font-family="微软雅黑" text-anchor="middle" font-size="13px" width="51px" fill="#323232" font-weight="400" align="middle" lineHeight="125%" font-style="" opacity="1" y="18.935319524374588" transform="rotate(0)"><tspan id="SvgjsTspan1281" dy="16" x="35.5"><tspan id="SvgjsTspan1282" style="text-decoration:;">redis</tspan></tspan></text></g></g><g id="SvgjsG1283" transform="translate(36.687636165577345,510.72521157236883)"><path id="SvgjsPath1284" d="M0 4.840732122775354C0 -1.6135773742584514 70.41557734204794 -1.6135773742584514 70.41557734204794 4.840732122775354C70.41557734204794 11.29504161980916 0 11.29504161980916 0 4.840732122775354Z " stroke="rgba(50,50,50,1)" stroke-width="2" fill-opacity="1" fill="#ffffff"></path><g id="SvgjsG1285"><text id="SvgjsText1286" font-family="微软雅黑" text-anchor="middle" font-size="13px" width="51px" fill="#323232" font-weight="400" align="middle" lineHeight="125%" font-style="" opacity="1" y="-4.784267877224646" transform="rotate(0)"></text></g></g><g id="SvgjsG1287" transform="translate(36.687636165577345,566.877704196563)"><path id="SvgjsPath1288" d="M0 4.840732122775354C0 -1.6135773742584514 70.41557734204794 -1.6135773742584514 70.41557734204794 4.840732122775354C70.41557734204794 11.29504161980916 0 11.29504161980916 0 4.840732122775354Z " stroke="rgba(50,50,50,1)" stroke-width="2" fill-opacity="1" fill="#ffffff"></path><g id="SvgjsG1289"><text id="SvgjsText1290" font-family="微软雅黑" text-anchor="middle" font-size="13px" width="51px" fill="#323232" font-weight="400" align="middle" lineHeight="125%" font-style="" opacity="1" y="-4.784267877224646" transform="rotate(0)"></text></g></g><g id="SvgjsG1291" transform="translate(118.99155773420478,500.78079397693887)"><path id="SvgjsPath1292" d="M0 0L70.41557734204794 0L70.41557734204794 57.120639048749176L0 57.120639048749176Z " stroke="rgba(50,50,50,1)" stroke-width="2" fill-opacity="1" fill="#ffffff"></path><g id="SvgjsG1293"><text id="SvgjsText1294" font-family="微软雅黑" text-anchor="middle" font-size="13px" width="51px" fill="#323232" font-weight="400" align="middle" lineHeight="125%" font-style="" opacity="1" y="18.935319524374588" transform="rotate(0)"><tspan id="SvgjsTspan1295" dy="16" x="35.5"><tspan id="SvgjsTspan1296" style="text-decoration:;">redis</tspan></tspan></text></g></g><g id="SvgjsG1297" transform="translate(118.99155773420478,496.9082082787187)"><path id="SvgjsPath1298" d="M0 4.840732122775354C0 -1.6135773742584514 70.41557734204794 -1.6135773742584514 70.41557734204794 4.840732122775354C70.41557734204794 11.29504161980916 0 11.29504161980916 0 4.840732122775354Z " stroke="rgba(50,50,50,1)" stroke-width="2" fill-opacity="1" fill="#ffffff"></path><g id="SvgjsG1299"><text id="SvgjsText1300" font-family="微软雅黑" text-anchor="middle" font-size="13px" width="51px" fill="#323232" font-weight="400" align="middle" lineHeight="125%" font-style="" opacity="1" y="-4.784267877224646" transform="rotate(0)"></text></g></g><g id="SvgjsG1301" transform="translate(118.99155773420478,553.0607009029128)"><path id="SvgjsPath1302" d="M0 4.840732122775354C0 -1.6135773742584514 70.41557734204794 -1.6135773742584514 70.41557734204794 4.840732122775354C70.41557734204794 11.29504161980916 0 11.29504161980916 0 4.840732122775354Z " stroke="rgba(50,50,50,1)" stroke-width="2" fill-opacity="1" fill="#ffffff"></path><g id="SvgjsG1303"><text id="SvgjsText1304" font-family="微软雅黑" text-anchor="middle" font-size="13px" width="51px" fill="#323232" font-weight="400" align="middle" lineHeight="125%" font-style="" opacity="1" y="-4.784267877224646" transform="rotate(0)"></text></g></g><g id="SvgjsG1305" transform="translate(216.84177559912854,513.7850323709627)"><path id="SvgjsPath1306" d="M0 0L70.41557734204794 0L70.41557734204794 57.120639048749176L0 57.120639048749176Z " stroke="rgba(50,50,50,1)" stroke-width="2" fill-opacity="1" fill="#ffffff"></path><g id="SvgjsG1307"><text id="SvgjsText1308" font-family="微软雅黑" text-anchor="middle" font-size="13px" width="51px" fill="#323232" font-weight="400" align="middle" lineHeight="125%" font-style="" opacity="1" y="18.935319524374588" transform="rotate(0)"><tspan id="SvgjsTspan1309" dy="16" x="35.5"><tspan id="SvgjsTspan1310" style="text-decoration:;">redis</tspan></tspan></text></g></g><g id="SvgjsG1311" transform="translate(216.84177559912854,509.91244667274236)"><path id="SvgjsPath1312" d="M0 4.840732122775354C0 -1.6135773742584514 70.41557734204794 -1.6135773742584514 70.41557734204794 4.840732122775354C70.41557734204794 11.29504161980916 0 11.29504161980916 0 4.840732122775354Z " stroke="rgba(50,50,50,1)" stroke-width="2" fill-opacity="1" fill="#ffffff"></path><g id="SvgjsG1313"><text id="SvgjsText1314" font-family="微软雅黑" text-anchor="middle" font-size="13px" width="51px" fill="#323232" font-weight="400" align="middle" lineHeight="125%" font-style="" opacity="1" y="-4.784267877224646" transform="rotate(0)"></text></g></g><g id="SvgjsG1315" transform="translate(216.84177559912854,566.0649392969365)"><path id="SvgjsPath1316" d="M0 4.840732122775354C0 -1.6135773742584514 70.41557734204794 -1.6135773742584514 70.41557734204794 4.840732122775354C70.41557734204794 11.29504161980916 0 11.29504161980916 0 4.840732122775354Z " stroke="rgba(50,50,50,1)" stroke-width="2" fill-opacity="1" fill="#ffffff"></path><g id="SvgjsG1317"><text id="SvgjsText1318" font-family="微软雅黑" text-anchor="middle" font-size="13px" width="51px" fill="#323232" font-weight="400" align="middle" lineHeight="125%" font-style="" opacity="1" y="-4.784267877224646" transform="rotate(0)"></text></g></g><g id="SvgjsG1319"><path id="SvgjsPath1320" d="M161.26589297624975 354.98254924835055L161.26589297624975 416.6005549307888L474.1098472246158 416.6005549307888L474.1098472246158 478.21856061322717 " stroke="#323232" stroke-width="2" fill="none" marker-end="url(#SvgjsMarker1321)"></path></g><g id="SvgjsG1323"><path id="SvgjsPath1324" d="M835.2435618215657 354.98254924835055L835.2435618215657 418.4912746241753L214 418.4912746241753L214 482 " stroke="#323232" stroke-width="2" fill="none" marker-end="url(#SvgjsMarker1325)"></path></g><g id="SvgjsG1327"><path id="SvgjsPath1328" d="M835.2435618215657 354.98254924835055L835.2435618215657 416.9912746241753L527 416.9912746241753L527 479 " stroke="#323232" stroke-width="2" fill="none" marker-end="url(#SvgjsMarker1329)"></path></g><g id="SvgjsG1331"><path id="SvgjsPath1332" d="M835.2435618215657 354.98254924835055L835.2435618215657 418.4116406855628L835 418.4116406855628L835 481.8407321227752 " stroke="#323232" stroke-width="2" fill="none" marker-end="url(#SvgjsMarker1333)"></path></g><g id="SvgjsG1335"><path id="SvgjsPath1336" d="M161.26589297624975 354.98254924835055L161.26589297624975 418.02092099217646L160.8014705882353 418.02092099217646L160.8014705882353 481.05929273600236 " stroke="#323232" stroke-width="2" fill="none" marker-end="url(#SvgjsMarker1337)"></path></g><g id="SvgjsG1339"><path id="SvgjsPath1340" d="M783.6985294117646 481.05929273600236L783.6985294117646 418.02092099217646L835.2435618215657 418.02092099217646L835.2435618215657 354.98254924835055 " stroke="#323232" stroke-width="2" fill="none" marker-end="url(#SvgjsMarker1341)"></path></g></svg>