<svg id="SvgjsSvg1000" xmlns="http://www.w3.org/2000/svg" version="1.1" xmlns:xlink="http://www.w3.org/1999/xlink" xmlns:svgjs="http://svgjs.com/svgjs" width="663" height="445"><defs id="SvgjsDefs1001"><marker id="SvgjsMarker1037" markerWidth="16" markerHeight="12" refX="16" refY="6" viewBox="0 0 16 12" orient="auto" markerUnits="userSpaceOnUse" stroke-dasharray="0,0"><path id="SvgjsPath1038" d="M0 2L14 6L0 11L0 2 " fill="#323232" stroke="#323232" stroke-width="2"></path></marker><marker id="SvgjsMarker1045" markerWidth="16" markerHeight="12" refX="16" refY="6" viewBox="0 0 16 12" orient="auto" markerUnits="userSpaceOnUse" stroke-dasharray="0,0"><path id="SvgjsPath1046" d="M0 2L14 6L0 11L0 2 " fill="#323232" stroke="#323232" stroke-width="2"></path></marker><marker id="SvgjsMarker1053" markerWidth="16" markerHeight="12" refX="16" refY="6" viewBox="0 0 16 12" orient="auto" markerUnits="userSpaceOnUse" stroke-dasharray="0,0"><path id="SvgjsPath1054" d="M0 2L14 6L0 11L0 2 " fill="#323232" stroke="#323232" stroke-width="2"></path></marker><marker id="SvgjsMarker1057" markerWidth="16" markerHeight="12" refX="16" refY="6" viewBox="0 0 16 12" orient="auto" markerUnits="userSpaceOnUse" stroke-dasharray="0,0"><path id="SvgjsPath1058" d="M0 2L14 6L0 11L0 2 " fill="#323232" stroke="#323232" stroke-width="2"></path></marker><marker id="SvgjsMarker1071" markerWidth="16" markerHeight="12" refX="16" refY="6" viewBox="0 0 16 12" orient="auto" markerUnits="userSpaceOnUse" stroke-dasharray="0,0"><path id="SvgjsPath1072" d="M0 2L14 6L0 11L0 2 " fill="#323232" stroke="#323232" stroke-width="2"></path></marker></defs><g id="SvgjsG1007" transform="translate(25,197)"><path id="SvgjsPath1008" d="M0 0L100 0L100 70L0 70Z " stroke="rgba(50,50,50,1)" stroke-width="2" fill-opacity="1" fill="#ffffff"></path><g id="SvgjsG1009"><text id="SvgjsText1010" font-family="微软雅黑" text-anchor="middle" font-size="13px" width="80px" fill="#323232" font-weight="400" align="middle" lineHeight="125%" font-style="" opacity="1" y="25.375" transform="rotate(0)"><tspan id="SvgjsTspan1011" dy="16" x="50"><tspan id="SvgjsTspan1012" style="text-decoration:;">client_A</tspan></tspan></text></g></g><g id="SvgjsG1013" transform="translate(314,197)"><path id="SvgjsPath1014" d="M0 0L100 0L100 70L0 70Z " stroke="rgba(50,50,50,1)" stroke-width="2" fill-opacity="1" fill="#ffffff"></path><g id="SvgjsG1015"><text id="SvgjsText1016" font-family="微软雅黑" text-anchor="middle" font-size="13px" width="80px" fill="#323232" font-weight="400" align="middle" lineHeight="125%" font-style="" opacity="1" y="25.375" transform="rotate(0)"><tspan id="SvgjsTspan1017" dy="16" x="50"><tspan id="SvgjsTspan1018" style="text-decoration:;">worker</tspan></tspan></text></g></g><g id="SvgjsG1019" transform="translate(538,197)"><path id="SvgjsPath1020" d="M0 0L100 0L100 70L0 70Z " stroke="rgba(50,50,50,1)" stroke-width="2" fill-opacity="1" fill="#ffffff"></path><g id="SvgjsG1021"><text id="SvgjsText1022" font-family="微软雅黑" text-anchor="middle" font-size="13px" width="80px" fill="#323232" font-weight="400" align="middle" lineHeight="125%" font-style="" opacity="1" y="17.375" transform="rotate(0)"><tspan id="SvgjsTspan1023" dy="16" x="50"><tspan id="SvgjsTspan1024" style="text-decoration:;">mysql存储库</tspan></tspan><tspan id="SvgjsTspan1025" dy="16" x="50"><tspan id="SvgjsTspan1026" style="text-decoration:;">历史消息</tspan></tspan></text></g></g><g id="SvgjsG1027" transform="translate(314,25)"><path id="SvgjsPath1028" d="M0 0L100 0L100 70L0 70Z " stroke="rgba(50,50,50,1)" stroke-width="2" fill-opacity="1" fill="#ffffff"></path><g id="SvgjsG1029"><text id="SvgjsText1030" font-family="微软雅黑" text-anchor="middle" font-size="13px" width="80px" fill="#323232" font-weight="400" align="middle" lineHeight="125%" font-style="" opacity="1" y="17.375" transform="rotate(0)"><tspan id="SvgjsTspan1031" dy="16" x="50"><tspan id="SvgjsTspan1032" style="text-decoration:;">redis同步库</tspan></tspan><tspan id="SvgjsTspan1033" dy="16" x="50"><tspan id="SvgjsTspan1034" style="text-decoration:;">离线消息</tspan></tspan></text></g></g><g id="SvgjsG1035"><path id="SvgjsPath1036" d="M125 232L219.5 232L219.5 232L314 232 " stroke="#323232" stroke-width="2" fill="none" marker-end="url(#SvgjsMarker1037)"></path><rect id="SvgjsRect1039" width="8" height="16" x="215.5" y="224" fill="#ffffff"></rect><text id="SvgjsText1040" font-family="微软雅黑" text-anchor="middle" font-size="13px" width="8px" fill="#323232" font-weight="400" align="top" lineHeight="16px" font-style="" opacity="1" y="222.375" transform="rotate(0)"><tspan id="SvgjsTspan1041" dy="16" x="219.5"><tspan id="SvgjsTspan1042" style="text-decoration:;">1</tspan></tspan></text></g><g id="SvgjsG1043"><path id="SvgjsPath1044" d="M414 232L476 232L476 232L538 232 " stroke="#323232" stroke-width="2" fill="none" marker-end="url(#SvgjsMarker1045)"></path><rect id="SvgjsRect1047" width="8" height="16" x="472" y="224" fill="#ffffff"></rect><text id="SvgjsText1048" font-family="微软雅黑" text-anchor="middle" font-size="13px" width="8px" fill="#323232" font-weight="400" align="top" lineHeight="16px" font-style="" opacity="1" y="222.375" transform="rotate(0)"><tspan id="SvgjsTspan1049" dy="16" x="476"><tspan id="SvgjsTspan1050" style="text-decoration:;">2</tspan></tspan></text></g><g id="SvgjsG1051"><path id="SvgjsPath1052" d="M364 197L364 146L364 146L364 95 " stroke="#323232" stroke-width="2" fill="none" marker-end="url(#SvgjsMarker1053)"></path></g><g id="SvgjsG1055"><path id="SvgjsPath1056" d="M364 95L364 146L364 146L364 197 " stroke="#323232" stroke-width="2" fill="none" marker-end="url(#SvgjsMarker1057)"></path><rect id="SvgjsRect1059" width="8" height="16" x="360" y="138" fill="#ffffff"></rect><text id="SvgjsText1060" font-family="微软雅黑" text-anchor="middle" font-size="13px" width="8px" fill="#323232" font-weight="400" align="top" lineHeight="16px" font-style="" opacity="1" y="136.375" transform="rotate(0)"><tspan id="SvgjsTspan1061" dy="16" x="364"><tspan id="SvgjsTspan1062" style="text-decoration:;">3</tspan></tspan></text></g><g id="SvgjsG1063" transform="translate(25,310)"><path id="SvgjsPath1064" d="M0 0L100 0L100 70L0 70Z " stroke="rgba(50,50,50,1)" stroke-width="2" fill-opacity="1" fill="#ffffff"></path><g id="SvgjsG1065"><text id="SvgjsText1066" font-family="微软雅黑" text-anchor="middle" font-size="13px" width="80px" fill="#323232" font-weight="400" align="middle" lineHeight="125%" font-style="" opacity="1" y="25.375" transform="rotate(0)"><tspan id="SvgjsTspan1067" dy="16" x="50"><tspan id="SvgjsTspan1068" style="text-decoration:;">client_B</tspan></tspan></text></g></g><g id="SvgjsG1069"><path id="SvgjsPath1070" d="M364 267L364 345L125 345 " stroke="#323232" stroke-width="2" fill="none" marker-end="url(#SvgjsMarker1071)"></path><rect id="SvgjsRect1073" width="8" height="16" x="279.5" y="337" fill="#ffffff"></rect><text id="SvgjsText1074" font-family="微软雅黑" text-anchor="middle" font-size="13px" width="8px" fill="#323232" font-weight="400" align="top" lineHeight="16px" font-style="" opacity="1" y="335.375" transform="rotate(0)"><tspan id="SvgjsTspan1075" dy="16" x="283.5"><tspan id="SvgjsTspan1076" style="text-decoration:;">4</tspan></tspan></text></g><g id="SvgjsG1077" transform="translate(259,388)"><path id="SvgjsPath1078" d="M0 0L252 0L252 32L0 32Z " stroke="rgba(50,50,50,1)" stroke-width="2" fill-opacity="1" fill="#ffffff"></path><g id="SvgjsG1079"><text id="SvgjsText1080" font-family="微软雅黑" text-anchor="middle" font-size="13px" width="232px" fill="#323232" font-weight="400" align="middle" lineHeight="125%" font-style="" opacity="1" y="6.375" transform="rotate(0)"><tspan id="SvgjsTspan1081" dy="16" x="126"><tspan id="SvgjsTspan1082" style="text-decoration:;">消息先存储，再放到同步库进行转发</tspan></tspan></text></g></g></svg>