<svg id="SvgjsSvg1000" xmlns="http://www.w3.org/2000/svg" version="1.1" xmlns:xlink="http://www.w3.org/1999/xlink" xmlns:svgjs="http://svgjs.com/svgjs" width="1297.75" height="1173.40625"><defs id="SvgjsDefs1001"><marker id="SvgjsMarker1017" markerWidth="16" markerHeight="12" refX="16" refY="6" viewBox="0 0 16 12" orient="auto" markerUnits="userSpaceOnUse" stroke-dasharray="0,0"><path id="SvgjsPath1018" d="M0 2L14 6L0 11L0 2 " fill="#323232" stroke="#323232" stroke-width="2"></path></marker><marker id="SvgjsMarker1025" markerWidth="16" markerHeight="12" refX="16" refY="6" viewBox="0 0 16 12" orient="auto" markerUnits="userSpaceOnUse" stroke-dasharray="0,0"><path id="SvgjsPath1026" d="M0 2L14 6L0 11L0 2 " fill="#323232" stroke="#323232" stroke-width="2"></path></marker><marker id="SvgjsMarker1033" markerWidth="16" markerHeight="12" refX="16" refY="6" viewBox="0 0 16 12" orient="auto" markerUnits="userSpaceOnUse" stroke-dasharray="0,0"><path id="SvgjsPath1034" d="M0 2L14 6L0 11L0 2 " fill="#323232" stroke="#323232" stroke-width="2"></path></marker><marker id="SvgjsMarker1059" markerWidth="16" markerHeight="12" refX="16" refY="6" viewBox="0 0 16 12" orient="auto" markerUnits="userSpaceOnUse" stroke-dasharray="0,0"><path id="SvgjsPath1060" d="M0 2L14 6L0 11L0 2 " fill="#323232" stroke="#323232" stroke-width="2"></path></marker><marker id="SvgjsMarker1073" markerWidth="16" markerHeight="12" refX="16" refY="6" viewBox="0 0 16 12" orient="auto" markerUnits="userSpaceOnUse" stroke-dasharray="0,0"><path id="SvgjsPath1074" d="M0 2L14 6L0 11L0 2 " fill="#323232" stroke="#323232" stroke-width="2"></path></marker><marker id="SvgjsMarker1089" markerWidth="16" markerHeight="12" refX="16" refY="6" viewBox="0 0 16 12" orient="auto" markerUnits="userSpaceOnUse" stroke-dasharray="0,0"><path id="SvgjsPath1090" d="M0 2L14 6L0 11L0 2 " fill="#323232" stroke="#323232" stroke-width="2"></path></marker><marker id="SvgjsMarker1113" markerWidth="16" markerHeight="12" refX="16" refY="6" viewBox="0 0 16 12" orient="auto" markerUnits="userSpaceOnUse" stroke-dasharray="0,0"><path id="SvgjsPath1114" d="M0 2L14 6L0 11L0 2 " fill="#323232" stroke="#323232" stroke-width="2"></path></marker><marker id="SvgjsMarker1129" markerWidth="16" markerHeight="12" refX="16" refY="6" viewBox="0 0 16 12" orient="auto" markerUnits="userSpaceOnUse" stroke-dasharray="0,0"><path id="SvgjsPath1130" d="M0 2L14 6L0 11L0 2 " fill="#323232" stroke="#323232" stroke-width="2"></path></marker><marker id="SvgjsMarker1145" markerWidth="16" markerHeight="12" refX="16" refY="6" viewBox="0 0 16 12" orient="auto" markerUnits="userSpaceOnUse" stroke-dasharray="0,0"><path id="SvgjsPath1146" d="M0 2L14 6L0 11L0 2 " fill="#323232" stroke="#323232" stroke-width="2"></path></marker><marker id="SvgjsMarker1161" markerWidth="16" markerHeight="12" refX="16" refY="6" viewBox="0 0 16 12" orient="auto" markerUnits="userSpaceOnUse" stroke-dasharray="0,0"><path id="SvgjsPath1162" d="M0 2L14 6L0 11L0 2 " fill="#323232" stroke="#323232" stroke-width="2"></path></marker><marker id="SvgjsMarker1179" markerWidth="16" markerHeight="12" refX="16" refY="6" viewBox="0 0 16 12" orient="auto" markerUnits="userSpaceOnUse" stroke-dasharray="0,0"><path id="SvgjsPath1180" d="M0 2L14 6L0 11L0 2 " fill="#323232" stroke="#323232" stroke-width="2"></path></marker><marker id="SvgjsMarker1187" markerWidth="16" markerHeight="12" refX="16" refY="6" viewBox="0 0 16 12" orient="auto" markerUnits="userSpaceOnUse" stroke-dasharray="0,0"><path id="SvgjsPath1188" d="M0 2L14 6L0 11L0 2 " fill="#323232" stroke="#323232" stroke-width="2"></path></marker><marker id="SvgjsMarker1203" markerWidth="16" markerHeight="12" refX="16" refY="6" viewBox="0 0 16 12" orient="auto" markerUnits="userSpaceOnUse" stroke-dasharray="0,0"><path id="SvgjsPath1204" d="M0 2L14 6L0 11L0 2 " fill="#323232" stroke="#323232" stroke-width="2"></path></marker><marker id="SvgjsMarker1221" markerWidth="16" markerHeight="12" refX="16" refY="6" viewBox="0 0 16 12" orient="auto" markerUnits="userSpaceOnUse" stroke-dasharray="0,0"><path id="SvgjsPath1222" d="M0 2L14 6L0 11L0 2 " fill="#323232" stroke="#323232" stroke-width="2"></path></marker><marker id="SvgjsMarker1237" markerWidth="16" markerHeight="12" refX="16" refY="6" viewBox="0 0 16 12" orient="auto" markerUnits="userSpaceOnUse" stroke-dasharray="0,0"><path id="SvgjsPath1238" d="M0 2L14 6L0 11L0 2 " fill="#323232" stroke="#323232" stroke-width="2"></path></marker><marker id="SvgjsMarker1263" markerWidth="16" markerHeight="12" refX="16" refY="6" viewBox="0 0 16 12" orient="auto" markerUnits="userSpaceOnUse" stroke-dasharray="0,0"><path id="SvgjsPath1264" d="M0 2L14 6L0 11L0 2 " fill="#323232" stroke="#323232" stroke-width="2"></path></marker><marker id="SvgjsMarker1279" markerWidth="16" markerHeight="12" refX="16" refY="6" viewBox="0 0 16 12" orient="auto" markerUnits="userSpaceOnUse" stroke-dasharray="0,0"><path id="SvgjsPath1280" d="M0 2L14 6L0 11L0 2 " fill="#323232" stroke="#323232" stroke-width="2"></path></marker><marker id="SvgjsMarker1287" markerWidth="16" markerHeight="12" refX="16" refY="6" viewBox="0 0 16 12" orient="auto" markerUnits="userSpaceOnUse" stroke-dasharray="0,0"><path id="SvgjsPath1288" d="M0 2L14 6L0 11L0 2 " fill="#323232" stroke="#323232" stroke-width="2"></path></marker><marker id="SvgjsMarker1303" markerWidth="16" markerHeight="12" refX="16" refY="6" viewBox="0 0 16 12" orient="auto" markerUnits="userSpaceOnUse" stroke-dasharray="0,0"><path id="SvgjsPath1304" d="M0 2L14 6L0 11L0 2 " fill="#323232" stroke="#323232" stroke-width="2"></path></marker><marker id="SvgjsMarker1311" markerWidth="16" markerHeight="12" refX="16" refY="6" viewBox="0 0 16 12" orient="auto" markerUnits="userSpaceOnUse" stroke-dasharray="0,0"><path id="SvgjsPath1312" d="M0 2L14 6L0 11L0 2 " fill="#323232" stroke="#323232" stroke-width="2"></path></marker><marker id="SvgjsMarker1331" markerWidth="16" markerHeight="12" refX="16" refY="6" viewBox="0 0 16 12" orient="auto" markerUnits="userSpaceOnUse" stroke-dasharray="0,0"><path id="SvgjsPath1332" d="M0 2L14 6L0 11L0 2 " fill="#323232" stroke="#323232" stroke-width="2"></path></marker><marker id="SvgjsMarker1343" markerWidth="16" markerHeight="12" refX="16" refY="6" viewBox="0 0 16 12" orient="auto" markerUnits="userSpaceOnUse" stroke-dasharray="0,0"><path id="SvgjsPath1344" d="M0 2L14 6L0 11L0 2 " fill="#323232" stroke="#323232" stroke-width="2"></path></marker><marker id="SvgjsMarker1351" markerWidth="16" markerHeight="12" refX="16" refY="6" viewBox="0 0 16 12" orient="auto" markerUnits="userSpaceOnUse" stroke-dasharray="0,0"><path id="SvgjsPath1352" d="M0 2L14 6L0 11L0 2 " fill="#323232" stroke="#323232" stroke-width="2"></path></marker><marker id="SvgjsMarker1359" markerWidth="16" markerHeight="12" refX="16" refY="6" viewBox="0 0 16 12" orient="auto" markerUnits="userSpaceOnUse" stroke-dasharray="0,0"><path id="SvgjsPath1360" d="M0 2L14 6L0 11L0 2 " fill="#323232" stroke="#323232" stroke-width="2"></path></marker><marker id="SvgjsMarker1367" markerWidth="16" markerHeight="12" refX="16" refY="6" viewBox="0 0 16 12" orient="auto" markerUnits="userSpaceOnUse" stroke-dasharray="0,0"><path id="SvgjsPath1368" d="M0 2L14 6L0 11L0 2 " fill="#323232" stroke="#323232" stroke-width="2"></path></marker><marker id="SvgjsMarker1375" markerWidth="16" markerHeight="12" refX="16" refY="6" viewBox="0 0 16 12" orient="auto" markerUnits="userSpaceOnUse" stroke-dasharray="0,0"><path id="SvgjsPath1376" d="M0 2L14 6L0 11L0 2 " fill="#323232" stroke="#323232" stroke-width="2"></path></marker><marker id="SvgjsMarker1393" markerWidth="16" markerHeight="12" refX="16" refY="6" viewBox="0 0 16 12" orient="auto" markerUnits="userSpaceOnUse" stroke-dasharray="0,0"><path id="SvgjsPath1394" d="M0 2L14 6L0 11L0 2 " fill="#323232" stroke="#323232" stroke-width="2"></path></marker><marker id="SvgjsMarker1397" markerWidth="16" markerHeight="12" refX="16" refY="6" viewBox="0 0 16 12" orient="auto" markerUnits="userSpaceOnUse" stroke-dasharray="0,0"><path id="SvgjsPath1398" d="M0 2L14 6L0 11L0 2 " fill="#323232" stroke="#323232" stroke-width="2"></path></marker><pattern id="SvgjsPattern1401" x="0" y="0" width="1211.25" height="86.25" patternUnits="userSpaceOnUse"><image id="SvgjsImage1402" xlink:href="https://img8.file.cache.docer.com/storage/image/8/d/e/9/8/b8e281e9d39d05b2eed352f5971af08f.png/128x128.png" width="1211.25" height="86.25" preserveAspectRatio="none" crossOrigin="anonymous" x="0" y="0"></image></pattern><pattern id="SvgjsPattern1419" x="0" y="0" width="1211.25" height="86.25" patternUnits="userSpaceOnUse"><image id="SvgjsImage1420" xlink:href="https://img8.file.cache.docer.com/storage/image/8/d/e/9/8/b8e281e9d39d05b2eed352f5971af08f.png/128x128.png" width="1211.25" height="86.25" preserveAspectRatio="none" crossOrigin="anonymous" x="0" y="0"></image></pattern><marker id="SvgjsMarker1435" markerWidth="16" markerHeight="12" refX="16" refY="6" viewBox="0 0 16 12" orient="auto" markerUnits="userSpaceOnUse" stroke-dasharray="0,0"><path id="SvgjsPath1436" d="M0 2L14 6L0 11L0 2 " fill="#323232" stroke="#323232" stroke-width="2"></path></marker></defs><g id="SvgjsG1007" transform="translate(429,109)"><path id="SvgjsPath1008" d="M0 35L45 0L90 35L45 70L0 35Z " stroke="rgba(50,50,50,1)" stroke-width="2" fill-opacity="1" fill="#ffffff"></path><g id="SvgjsG1009"><text id="SvgjsText1010" font-family="微软雅黑" text-anchor="middle" font-size="13px" width="70px" fill="#323232" font-weight="400" align="middle" lineHeight="125%" font-style="" opacity="1" y="17.375" transform="rotate(0)"><tspan id="SvgjsTspan1011" dy="16" x="45"><tspan id="SvgjsTspan1012" style="text-decoration:;">判断是否是</tspan></tspan><tspan id="SvgjsTspan1013" dy="16" x="45"><tspan id="SvgjsTspan1014" style="text-decoration:;">长文本</tspan></tspan></text></g></g><g id="SvgjsG1015"><path id="SvgjsPath1016" d="M312 144L370.5 144L370.5 144L429 144 " stroke="#323232" stroke-width="2" fill="none" marker-end="url(#SvgjsMarker1017)"></path><rect id="SvgjsRect1019" width="78" height="16" x="331.5" y="136" fill="#ffffff"></rect><text id="SvgjsText1020" font-family="微软雅黑" text-anchor="middle" font-size="13px" width="78px" fill="#323232" font-weight="400" align="top" lineHeight="16px" font-style="" opacity="1" y="134.375" transform="rotate(0)"><tspan id="SvgjsTspan1021" dy="16" x="370.5"><tspan id="SvgjsTspan1022" style="text-decoration:;">消息参数字典</tspan></tspan></text></g><g id="SvgjsG1023"><path id="SvgjsPath1024" d="M519 144L562.5 144L562.5 144L606 144 " stroke="#323232" stroke-width="2" fill="none" marker-end="url(#SvgjsMarker1025)"></path><rect id="SvgjsRect1027" width="13" height="16" x="556" y="136" fill="#ffffff"></rect><text id="SvgjsText1028" font-family="微软雅黑" text-anchor="middle" font-size="13px" width="13px" fill="#323232" font-weight="400" align="top" lineHeight="16px" font-style="" opacity="1" y="134.375" transform="rotate(0)"><tspan id="SvgjsTspan1029" dy="16" x="562.5"><tspan id="SvgjsTspan1030" style="text-decoration:;">是</tspan></tspan></text></g><g id="SvgjsG1031"><path id="SvgjsPath1032" d="M474 109L474 60L606 60 " stroke="#323232" stroke-width="2" fill="none" marker-end="url(#SvgjsMarker1033)"></path><rect id="SvgjsRect1035" width="13" height="16" x="509" y="52" fill="#ffffff"></rect><text id="SvgjsText1036" font-family="微软雅黑" text-anchor="middle" font-size="13px" width="13px" fill="#323232" font-weight="400" align="top" lineHeight="16px" font-style="" opacity="1" y="50.375" transform="rotate(0)"><tspan id="SvgjsTspan1037" dy="16" x="515.5"><tspan id="SvgjsTspan1038" style="text-decoration:;">否</tspan></tspan></text></g><g id="SvgjsG1039" transform="translate(606,109)"><path id="SvgjsPath1040" d="M0 0L151 0L151 70L0 70Z " stroke="rgba(50,50,50,1)" stroke-width="2" fill-opacity="1" fill="#ffffff"></path><g id="SvgjsG1041"><text id="SvgjsText1042" font-family="微软雅黑" text-anchor="middle" font-size="13px" width="131px" fill="#323232" font-weight="400" align="middle" lineHeight="125%" font-style="" opacity="1" y="9.375" transform="rotate(0)"><tspan id="SvgjsTspan1043" dy="16" x="75.5"><tspan id="SvgjsTspan1044" style="text-decoration:;">分割依次处理，用事务</tspan></tspan><tspan id="SvgjsTspan1045" dy="16" x="75.5"><tspan id="SvgjsTspan1046" style="text-decoration:;">id、总分割份数和消息</tspan></tspan><tspan id="SvgjsTspan1047" dy="16" x="75.5"><tspan id="SvgjsTspan1048" style="text-decoration:;">id标识</tspan></tspan></text></g></g><g id="SvgjsG1049" transform="translate(884,109)"><path id="SvgjsPath1050" d="M0 0L100 0L100 70L0 70Z " stroke="rgba(50,50,50,1)" stroke-width="2" fill-opacity="1" fill="#ffffff"></path><g id="SvgjsG1051"><text id="SvgjsText1052" font-family="微软雅黑" text-anchor="middle" font-size="13px" width="80px" fill="#323232" font-weight="400" align="middle" lineHeight="125%" font-style="" opacity="1" y="17.375" transform="rotate(0)"><tspan id="SvgjsTspan1053" dy="16" x="50"><tspan id="SvgjsTspan1054" style="text-decoration:;">json格式化</tspan></tspan><tspan id="SvgjsTspan1055" dy="16" x="50"><tspan id="SvgjsTspan1056" style="text-decoration:;">+base64编码</tspan></tspan></text></g></g><g id="SvgjsG1057"><path id="SvgjsPath1058" d="M757 144L820.5 144L820.5 144L884 144 " stroke="#323232" stroke-width="2" fill="none" marker-end="url(#SvgjsMarker1059)"></path><rect id="SvgjsRect1061" width="52" height="16" x="794.5" y="136" fill="#ffffff"></rect><text id="SvgjsText1062" font-family="微软雅黑" text-anchor="middle" font-size="13px" width="52px" fill="#323232" font-weight="400" align="top" lineHeight="16px" font-style="" opacity="1" y="134.375" transform="rotate(0)"><tspan id="SvgjsTspan1063" dy="16" x="820.5"><tspan id="SvgjsTspan1064" style="text-decoration:;">参数字典</tspan></tspan></text></g><g id="SvgjsG1065" transform="translate(884,244.25)"><path id="SvgjsPath1066" d="M0 0L100 0L100 70L0 70Z " stroke="rgba(50,50,50,1)" stroke-width="2" fill-opacity="1" fill="#ffffff"></path><g id="SvgjsG1067"><text id="SvgjsText1068" font-family="微软雅黑" text-anchor="middle" font-size="13px" width="80px" fill="#323232" font-weight="400" align="middle" lineHeight="125%" font-style="" opacity="1" y="25.375" transform="rotate(0)"><tspan id="SvgjsTspan1069" dy="16" x="50"><tspan id="SvgjsTspan1070" style="text-decoration:;">数据包解析</tspan></tspan></text></g></g><g id="SvgjsG1071"><path id="SvgjsPath1072" d="M934 179L934 211.625L934 211.625L934 244.25 " stroke="#323232" stroke-width="2" fill="none" marker-end="url(#SvgjsMarker1073)"></path><rect id="SvgjsRect1075" width="78" height="16" x="895" y="197.8625" fill="#ffffff"></rect><text id="SvgjsText1076" font-family="微软雅黑" text-anchor="middle" font-size="13px" width="78px" fill="#323232" font-weight="400" align="top" lineHeight="16px" font-style="" opacity="1" y="196.2375" transform="rotate(0)"><tspan id="SvgjsTspan1077" dy="16" x="934"><tspan id="SvgjsTspan1078" style="text-decoration:;">消息发送请求</tspan></tspan></text></g><g id="SvgjsG1079" transform="translate(669,244.25)"><path id="SvgjsPath1080" d="M0 0L100 0L100 70L0 70Z " stroke="rgba(50,50,50,1)" stroke-width="2" fill-opacity="1" fill="#ffffff"></path><g id="SvgjsG1081"><text id="SvgjsText1082" font-family="微软雅黑" text-anchor="middle" font-size="13px" width="80px" fill="#323232" font-weight="400" align="middle" lineHeight="125%" font-style="" opacity="1" y="17.375" transform="rotate(0)"><tspan id="SvgjsTspan1083" dy="16" x="50"><tspan id="SvgjsTspan1084" style="text-decoration:;">交给消息发送</tspan></tspan><tspan id="SvgjsTspan1085" dy="16" x="50"><tspan id="SvgjsTspan1086" style="text-decoration:;">处理函数</tspan></tspan></text></g></g><g id="SvgjsG1087"><path id="SvgjsPath1088" d="M884 279.25L826.5 279.25L826.5 279.25L769 279.25 " stroke="#323232" stroke-width="2" fill="none" marker-end="url(#SvgjsMarker1089)"></path><rect id="SvgjsRect1091" width="52" height="16" x="800.5" y="271.25" fill="#ffffff"></rect><text id="SvgjsText1092" font-family="微软雅黑" text-anchor="middle" font-size="13px" width="52px" fill="#323232" font-weight="400" align="top" lineHeight="16px" font-style="" opacity="1" y="269.625" transform="rotate(0)"><tspan id="SvgjsTspan1093" dy="16" x="826.5"><tspan id="SvgjsTspan1094" style="text-decoration:;">参数字典</tspan></tspan></text></g><g id="SvgjsG1095" transform="translate(465,385.25)"><path id="SvgjsPath1096" d="M0 0L100 0L100 70L0 70Z " stroke="rgba(50,50,50,1)" stroke-width="2" fill-opacity="1" fill="#ffffff"></path><g id="SvgjsG1097"><text id="SvgjsText1098" font-family="微软雅黑" text-anchor="middle" font-size="13px" width="80px" fill="#323232" font-weight="400" align="middle" lineHeight="125%" font-style="" opacity="1" y="17.375" transform="rotate(0)"><tspan id="SvgjsTspan1099" dy="16" x="50"><tspan id="SvgjsTspan1100" style="text-decoration:;">存放到发送消</tspan></tspan><tspan id="SvgjsTspan1101" dy="16" x="50"><tspan id="SvgjsTspan1102" style="text-decoration:;">息列表</tspan></tspan></text></g></g><g id="SvgjsG1103" transform="translate(465,244.25)"><path id="SvgjsPath1104" d="M0 35L45 0L90 35L45 70L0 35Z " stroke="rgba(50,50,50,1)" stroke-width="2" fill-opacity="1" fill="#ffffff"></path><g id="SvgjsG1105"><text id="SvgjsText1106" font-family="微软雅黑" text-anchor="middle" font-size="13px" width="70px" fill="#323232" font-weight="400" align="middle" lineHeight="125%" font-style="" opacity="1" y="17.375" transform="rotate(0)"><tspan id="SvgjsTspan1107" dy="16" x="45"><tspan id="SvgjsTspan1108" style="text-decoration:;">是否是期望</tspan></tspan><tspan id="SvgjsTspan1109" dy="16" x="45"><tspan id="SvgjsTspan1110" style="text-decoration:;">的消息id</tspan></tspan></text></g></g><g id="SvgjsG1111"><path id="SvgjsPath1112" d="M465 279.25L420.5 279.25L420.5 279.25L376 279.25 " stroke="#323232" stroke-width="2" fill="none" marker-end="url(#SvgjsMarker1113)"></path><rect id="SvgjsRect1115" width="13" height="16" x="414" y="271.25" fill="#ffffff"></rect><text id="SvgjsText1116" font-family="微软雅黑" text-anchor="middle" font-size="13px" width="13px" fill="#323232" font-weight="400" align="top" lineHeight="16px" font-style="" opacity="1" y="269.625" transform="rotate(0)"><tspan id="SvgjsTspan1117" dy="16" x="420.5"><tspan id="SvgjsTspan1118" style="text-decoration:;">是</tspan></tspan></text></g><g id="SvgjsG1119" transform="translate(286,244.25)"><path id="SvgjsPath1120" d="M0 35L45 0L90 35L45 70L0 35Z " stroke="rgba(50,50,50,1)" stroke-width="2" fill-opacity="1" fill="#ffffff"></path><g id="SvgjsG1121"><text id="SvgjsText1122" font-family="微软雅黑" text-anchor="middle" font-size="13px" width="70px" fill="#323232" font-weight="400" align="middle" lineHeight="125%" font-style="" opacity="1" y="17.375" transform="rotate(0)"><tspan id="SvgjsTspan1123" dy="16" x="45"><tspan id="SvgjsTspan1124" style="text-decoration:;">是否是长文</tspan></tspan><tspan id="SvgjsTspan1125" dy="16" x="45"><tspan id="SvgjsTspan1126" style="text-decoration:;">本消息</tspan></tspan></text></g></g><g id="SvgjsG1127"><path id="SvgjsPath1128" d="M331 314.25L331 349.75L334 349.75L334 385.25 " stroke="#323232" stroke-width="2" fill="none" marker-end="url(#SvgjsMarker1129)"></path><rect id="SvgjsRect1131" width="13" height="16" x="326" y="341.75" fill="#ffffff"></rect><text id="SvgjsText1132" font-family="微软雅黑" text-anchor="middle" font-size="13px" width="13px" fill="#323232" font-weight="400" align="top" lineHeight="16px" font-style="" opacity="1" y="340.125" transform="rotate(0)"><tspan id="SvgjsTspan1133" dy="16" x="332.5"><tspan id="SvgjsTspan1134" style="text-decoration:;">是</tspan></tspan></text></g><g id="SvgjsG1135" transform="translate(289,385.25)"><path id="SvgjsPath1136" d="M0 35L45 0L90 35L45 70L0 35Z " stroke="rgba(50,50,50,1)" stroke-width="2" fill-opacity="1" fill="#ffffff"></path><g id="SvgjsG1137"><text id="SvgjsText1138" font-family="微软雅黑" text-anchor="middle" font-size="13px" width="70px" fill="#323232" font-weight="400" align="middle" lineHeight="125%" font-style="" opacity="1" y="17.375" transform="rotate(0)"><tspan id="SvgjsTspan1139" dy="16" x="45"><tspan id="SvgjsTspan1140" style="text-decoration:;">长文本是否</tspan></tspan><tspan id="SvgjsTspan1141" dy="16" x="45"><tspan id="SvgjsTspan1142" style="text-decoration:;">已经完整</tspan></tspan></text></g></g><g id="SvgjsG1143"><path id="SvgjsPath1144" d="M286 279.25L220.25 279.25L220.25 419.75 " stroke="#323232" stroke-width="2" fill="none" marker-end="url(#SvgjsMarker1145)"></path><rect id="SvgjsRect1147" width="13" height="16" x="238.8" y="271.25" fill="#ffffff"></rect><text id="SvgjsText1148" font-family="微软雅黑" text-anchor="middle" font-size="13px" width="13px" fill="#323232" font-weight="400" align="top" lineHeight="16px" font-style="" opacity="1" y="269.625" transform="rotate(0)"><tspan id="SvgjsTspan1149" dy="16" x="245.3"><tspan id="SvgjsTspan1150" style="text-decoration:;">否</tspan></tspan></text></g><g id="SvgjsG1151" transform="translate(170.1875,618)"><path id="SvgjsPath1152" d="M0 0L100 0L100 70L0 70Z " stroke="rgba(50,50,50,1)" stroke-width="2" fill-opacity="1" fill="#ffffff"></path><g id="SvgjsG1153"><text id="SvgjsText1154" font-family="微软雅黑" text-anchor="middle" font-size="13px" width="80px" fill="#323232" font-weight="400" align="middle" lineHeight="125%" font-style="" opacity="1" y="17.375" transform="rotate(0)"><tspan id="SvgjsTspan1155" dy="16" x="50"><tspan id="SvgjsTspan1156" style="text-decoration:;">存入消息存储</tspan></tspan><tspan id="SvgjsTspan1157" dy="16" x="50"><tspan id="SvgjsTspan1158" style="text-decoration:;">库</tspan></tspan></text></g></g><g id="SvgjsG1159"><path id="SvgjsPath1160" d="M510 314.25L510 349.75L941 349.75L941 385.25 " stroke="#323232" stroke-width="2" fill="none" marker-end="url(#SvgjsMarker1161)"></path><rect id="SvgjsRect1163" width="13" height="16" x="719" y="341.75" fill="#ffffff"></rect><text id="SvgjsText1164" font-family="微软雅黑" text-anchor="middle" font-size="13px" width="13px" fill="#323232" font-weight="400" align="top" lineHeight="16px" font-style="" opacity="1" y="340.125" transform="rotate(0)"><tspan id="SvgjsTspan1165" dy="16" x="725.5"><tspan id="SvgjsTspan1166" style="text-decoration:;">否</tspan></tspan></text></g><g id="SvgjsG1167" transform="translate(891,385.25)"><path id="SvgjsPath1168" d="M0 0L100 0L100 70L0 70Z " stroke="rgba(50,50,50,1)" stroke-width="2" fill-opacity="1" fill="#ffffff"></path><g id="SvgjsG1169"><text id="SvgjsText1170" font-family="微软雅黑" text-anchor="middle" font-size="13px" width="80px" fill="#323232" font-weight="400" align="middle" lineHeight="125%" font-style="" opacity="1" y="9.375" transform="rotate(0)"><tspan id="SvgjsTspan1171" dy="16" x="50"><tspan id="SvgjsTspan1172" style="text-decoration:;">通知发送者重</tspan></tspan><tspan id="SvgjsTspan1173" dy="16" x="50"><tspan id="SvgjsTspan1174" style="text-decoration:;">发缺失的期望</tspan></tspan><tspan id="SvgjsTspan1175" dy="16" x="50"><tspan id="SvgjsTspan1176" style="text-decoration:;">消息</tspan></tspan></text></g></g><g id="SvgjsG1177"><path id="SvgjsPath1178" d="M334 455.25L334 477.25L334 477.25L334 499.25 " stroke="#323232" stroke-width="2" fill="none" marker-end="url(#SvgjsMarker1179)"></path><rect id="SvgjsRect1181" width="13" height="16" x="327.5" y="469.25" fill="#ffffff"></rect><text id="SvgjsText1182" font-family="微软雅黑" text-anchor="middle" font-size="13px" width="13px" fill="#323232" font-weight="400" align="top" lineHeight="16px" font-style="" opacity="1" y="467.625" transform="rotate(0)"><tspan id="SvgjsTspan1183" dy="16" x="334"><tspan id="SvgjsTspan1184" style="text-decoration:;">是</tspan></tspan></text></g><g id="SvgjsG1185"><path id="SvgjsPath1186" d="M379 420.25L422 420.25L422 420.25L465 420.25 " stroke="#323232" stroke-width="2" fill="none" marker-end="url(#SvgjsMarker1187)"></path><rect id="SvgjsRect1189" width="13" height="16" x="415.5" y="412.25" fill="#ffffff"></rect><text id="SvgjsText1190" font-family="微软雅黑" text-anchor="middle" font-size="13px" width="13px" fill="#323232" font-weight="400" align="top" lineHeight="16px" font-style="" opacity="1" y="410.625" transform="rotate(0)"><tspan id="SvgjsTspan1191" dy="16" x="422"><tspan id="SvgjsTspan1192" style="text-decoration:;">否</tspan></tspan></text></g><g id="SvgjsG1193" transform="translate(606,25)"><path id="SvgjsPath1194" d="M0 0L100 0L100 70L0 70Z " stroke="rgba(50,50,50,1)" stroke-width="2" fill-opacity="1" fill="#ffffff"></path><g id="SvgjsG1195"><text id="SvgjsText1196" font-family="微软雅黑" text-anchor="middle" font-size="13px" width="80px" fill="#323232" font-weight="400" align="middle" lineHeight="125%" font-style="" opacity="1" y="17.375" transform="rotate(0)"><tspan id="SvgjsTspan1197" dy="16" x="50"><tspan id="SvgjsTspan1198" style="text-decoration:;">仅需补充消息</tspan></tspan><tspan id="SvgjsTspan1199" dy="16" x="50"><tspan id="SvgjsTspan1200" style="text-decoration:;">id等参数</tspan></tspan></text></g></g><g id="SvgjsG1201"><path id="SvgjsPath1202" d="M706 60L934 60L934 109 " stroke="#323232" stroke-width="2" fill="none" marker-end="url(#SvgjsMarker1203)"></path><rect id="SvgjsRect1205" width="52" height="16" x="818.5" y="52" fill="#ffffff"></rect><text id="SvgjsText1206" font-family="微软雅黑" text-anchor="middle" font-size="13px" width="52px" fill="#323232" font-weight="400" align="top" lineHeight="16px" font-style="" opacity="1" y="50.375" transform="rotate(0)"><tspan id="SvgjsTspan1207" dy="16" x="844.5"><tspan id="SvgjsTspan1208" style="text-decoration:;">参数字典</tspan></tspan></text></g><g id="SvgjsG1209" transform="translate(471.25,504.25)"><path id="SvgjsPath1210" d="M0 35L45 0L90 35L45 70L0 35Z " stroke="rgba(50,50,50,1)" stroke-width="2" fill-opacity="1" fill="#ffffff"></path><g id="SvgjsG1211"><text id="SvgjsText1212" font-family="微软雅黑" text-anchor="middle" font-size="13px" width="70px" fill="#323232" font-weight="400" align="middle" lineHeight="125%" font-style="" opacity="1" y="9.375" transform="rotate(0)"><tspan id="SvgjsTspan1213" dy="16" x="45"><tspan id="SvgjsTspan1214" style="text-decoration:;">消息发送列</tspan></tspan><tspan id="SvgjsTspan1215" dy="16" x="45"><tspan id="SvgjsTspan1216" style="text-decoration:;">表是否达到</tspan></tspan><tspan id="SvgjsTspan1217" dy="16" x="45"><tspan id="SvgjsTspan1218" style="text-decoration:;">上限</tspan></tspan></text></g></g><g id="SvgjsG1219"><path id="SvgjsPath1220" d="M561.25 539.25L624.625 539.25L624.625 539.25L688 539.25 " stroke="#323232" stroke-width="2" fill="none" marker-end="url(#SvgjsMarker1221)"></path><rect id="SvgjsRect1223" width="13" height="16" x="618.125" y="531.25" fill="#ffffff"></rect><text id="SvgjsText1224" font-family="微软雅黑" text-anchor="middle" font-size="13px" width="13px" fill="#323232" font-weight="400" align="top" lineHeight="16px" font-style="" opacity="1" y="529.625" transform="rotate(0)"><tspan id="SvgjsTspan1225" dy="16" x="624.625"><tspan id="SvgjsTspan1226" style="text-decoration:;">否</tspan></tspan></text></g><g id="SvgjsG1227" transform="translate(688,504.25)"><path id="SvgjsPath1228" d="M0 0L100 0L100 70L0 70Z " stroke="rgba(50,50,50,1)" stroke-width="2" fill-opacity="1" fill="#ffffff"></path><g id="SvgjsG1229"><text id="SvgjsText1230" font-family="微软雅黑" text-anchor="middle" font-size="13px" width="80px" fill="#323232" font-weight="400" align="middle" lineHeight="125%" font-style="" opacity="1" y="17.375" transform="rotate(0)"><tspan id="SvgjsTspan1231" dy="16" x="50"><tspan id="SvgjsTspan1232" style="text-decoration:;">暂时退出处理</tspan></tspan><tspan id="SvgjsTspan1233" dy="16" x="50"><tspan id="SvgjsTspan1234" style="text-decoration:;">流程</tspan></tspan></text></g></g><g id="SvgjsG1235"><path id="SvgjsPath1236" d="M516.25 574.25L516.25 594.25L515.859375 594.25L515.859375 614.25 " stroke="#323232" stroke-width="2" fill="none" marker-end="url(#SvgjsMarker1237)"></path><rect id="SvgjsRect1239" width="13" height="16" x="509.5546875" y="586.25" fill="#ffffff"></rect><text id="SvgjsText1240" font-family="微软雅黑" text-anchor="middle" font-size="13px" width="13px" fill="#323232" font-weight="400" align="top" lineHeight="16px" font-style="" opacity="1" y="584.625" transform="rotate(0)"><tspan id="SvgjsTspan1241" dy="16" x="516.0546875"><tspan id="SvgjsTspan1242" style="text-decoration:;">是</tspan></tspan></text></g><g id="SvgjsG1243" transform="translate(451.859375,614.25)"><path id="SvgjsPath1244" d="M0 0L128 0L128 78L0 78Z " stroke="rgba(50,50,50,1)" stroke-width="2" fill-opacity="1" fill="#ffffff"></path><g id="SvgjsG1245"><text id="SvgjsText1246" font-family="微软雅黑" text-anchor="middle" font-size="13px" width="108px" fill="#323232" font-weight="400" align="middle" lineHeight="125%" font-style="" opacity="1" y="5.375" transform="rotate(0)"><tspan id="SvgjsTspan1247" dy="16" x="64"><tspan id="SvgjsTspan1248" style="text-decoration:;">期望id对应数据</tspan></tspan><tspan id="SvgjsTspan1249" dy="16" x="64"><tspan id="SvgjsTspan1250" style="text-decoration:;">（长文本）清空，</tspan></tspan><tspan id="SvgjsTspan1251" dy="16" x="64"><tspan id="SvgjsTspan1252" style="text-decoration:;">直接处理后续连续</tspan></tspan><tspan id="SvgjsTspan1253" dy="16" x="64"><tspan id="SvgjsTspan1254" style="text-decoration:;">完整消息</tspan></tspan></text></g></g><g id="SvgjsG1255" transform="translate(212,109)"><path id="SvgjsPath1256" d="M0 0L100 0L100 70L0 70Z " stroke="rgba(50,50,50,1)" stroke-width="2" fill-opacity="1" fill="#ffffff"></path><g id="SvgjsG1257"><text id="SvgjsText1258" font-family="微软雅黑" text-anchor="middle" font-size="13px" width="80px" fill="#323232" font-weight="400" align="middle" lineHeight="125%" font-style="" opacity="1" y="25.375" transform="rotate(0)"><tspan id="SvgjsTspan1259" dy="16" x="50"><tspan id="SvgjsTspan1260" style="text-decoration:;">解析原始输入</tspan></tspan></text></g></g><g id="SvgjsG1261"><path id="SvgjsPath1262" d="M515.859375 692.25L515.859375 868.8125L738 868.8125L738 1045.375 " stroke="#323232" stroke-width="2" fill="none" marker-end="url(#SvgjsMarker1263)"></path><rect id="SvgjsRect1265" width="130" height="16" x="561.9296875" y="860.8125" fill="#ffffff"></rect><text id="SvgjsText1266" font-family="微软雅黑" text-anchor="middle" font-size="13px" width="130px" fill="#323232" font-weight="400" align="top" lineHeight="16px" font-style="" opacity="1" y="859.1875" transform="rotate(0)"><tspan id="SvgjsTspan1267" dy="16" x="626.9296875"><tspan id="SvgjsTspan1268" style="text-decoration:;">消息发送请求已经失败</tspan></tspan></text></g><g id="SvgjsG1269" transform="translate(170.1875,858)"><path id="SvgjsPath1270" d="M0 0L100 0L100 70L0 70Z " stroke="rgba(50,50,50,1)" stroke-width="2" fill-opacity="1" fill="#ffffff"></path><g id="SvgjsG1271"><text id="SvgjsText1272" font-family="微软雅黑" text-anchor="middle" font-size="13px" width="80px" fill="#323232" font-weight="400" align="middle" lineHeight="125%" font-style="" opacity="1" y="17.375" transform="rotate(0)"><tspan id="SvgjsTspan1273" dy="16" x="50"><tspan id="SvgjsTspan1274" style="text-decoration:;">同步给目标用</tspan></tspan><tspan id="SvgjsTspan1275" dy="16" x="50"><tspan id="SvgjsTspan1276" style="text-decoration:;">户</tspan></tspan></text></g></g><g id="SvgjsG1277"><path id="SvgjsPath1278" d="M515 455.25L515 479.75L516.25 479.75L516.25 504.25 " stroke="#323232" stroke-width="2" fill="none" marker-end="url(#SvgjsMarker1279)"></path><rect id="SvgjsRect1281" width="52" height="16" x="489.625" y="471.75" fill="#ffffff"></rect><text id="SvgjsText1282" font-family="微软雅黑" text-anchor="middle" font-size="13px" width="52px" fill="#323232" font-weight="400" align="top" lineHeight="16px" font-style="" opacity="1" y="470.125" transform="rotate(0)"><tspan id="SvgjsTspan1283" dy="16" x="515.625"><tspan id="SvgjsTspan1284" style="text-decoration:;">消息列表</tspan></tspan></text></g><g id="SvgjsG1285"><path id="SvgjsPath1286" d="M669 279.25L612 279.25L612 279.25L555 279.25 " stroke="#323232" stroke-width="2" fill="none" marker-end="url(#SvgjsMarker1287)"></path><rect id="SvgjsRect1289" width="26" height="16" x="599" y="271.25" fill="#ffffff"></rect><text id="SvgjsText1290" font-family="微软雅黑" text-anchor="middle" font-size="13px" width="26px" fill="#323232" font-weight="400" align="top" lineHeight="16px" font-style="" opacity="1" y="269.625" transform="rotate(0)"><tspan id="SvgjsTspan1291" dy="16" x="612"><tspan id="SvgjsTspan1292" style="text-decoration:;">消息</tspan></tspan></text></g><g id="SvgjsG1293" transform="translate(170.1875,736)"><path id="SvgjsPath1294" d="M0 0L100 0L100 70L0 70Z " stroke="rgba(50,50,50,1)" stroke-width="2" fill-opacity="1" fill="#ffffff"></path><g id="SvgjsG1295"><text id="SvgjsText1296" font-family="微软雅黑" text-anchor="middle" font-size="13px" width="80px" fill="#323232" font-weight="400" align="middle" lineHeight="125%" font-style="" opacity="1" y="17.375" transform="rotate(0)"><tspan id="SvgjsTspan1297" dy="16" x="50"><tspan id="SvgjsTspan1298" style="text-decoration:;">放入消息同步</tspan></tspan><tspan id="SvgjsTspan1299" dy="16" x="50"><tspan id="SvgjsTspan1300" style="text-decoration:;">库</tspan></tspan></text></g></g><g id="SvgjsG1301"><path id="SvgjsPath1302" d="M220.1875 688L220.1875 712L220.1875 712L220.1875 736 " stroke="#323232" stroke-width="2" fill="none" marker-end="url(#SvgjsMarker1303)"></path><rect id="SvgjsRect1305" width="26" height="16" x="207.1875" y="704" fill="#ffffff"></rect><text id="SvgjsText1306" font-family="微软雅黑" text-anchor="middle" font-size="13px" width="26px" fill="#323232" font-weight="400" align="top" lineHeight="16px" font-style="" opacity="1" y="702.375" transform="rotate(0)"><tspan id="SvgjsTspan1307" dy="16" x="220.1875"><tspan id="SvgjsTspan1308" style="text-decoration:;">消息</tspan></tspan></text></g><g id="SvgjsG1309"><path id="SvgjsPath1310" d="M220.1875 806L220.1875 832L220.1875 832L220.1875 858 " stroke="#323232" stroke-width="2" fill="none" marker-end="url(#SvgjsMarker1311)"></path><rect id="SvgjsRect1313" width="26" height="16" x="207.1875" y="824" fill="#ffffff"></rect><text id="SvgjsText1314" font-family="微软雅黑" text-anchor="middle" font-size="13px" width="26px" fill="#323232" font-weight="400" align="top" lineHeight="16px" font-style="" opacity="1" y="822.375" transform="rotate(0)"><tspan id="SvgjsTspan1315" dy="16" x="220.1875"><tspan id="SvgjsTspan1316" style="text-decoration:;">消息</tspan></tspan></text></g><g id="SvgjsG1317" transform="translate(284,499.25)"><path id="SvgjsPath1318" d="M0 0L100 0L100 70L0 70Z " stroke="rgba(50,50,50,1)" stroke-width="2" fill-opacity="1" fill="#ffffff"></path><g id="SvgjsG1319"><text id="SvgjsText1320" font-family="微软雅黑" text-anchor="middle" font-size="13px" width="80px" fill="#323232" font-weight="400" align="middle" lineHeight="125%" font-style="" opacity="1" y="1.375" transform="rotate(0)"><tspan id="SvgjsTspan1321" dy="16" x="50"><tspan id="SvgjsTspan1322" style="text-decoration:;">当前长文本消</tspan></tspan><tspan id="SvgjsTspan1323" dy="16" x="50"><tspan id="SvgjsTspan1324" style="text-decoration:;">息+消息列表</tspan></tspan><tspan id="SvgjsTspan1325" dy="16" x="50"><tspan id="SvgjsTspan1326" style="text-decoration:;">的后续完整连</tspan></tspan><tspan id="SvgjsTspan1327" dy="16" x="50"><tspan id="SvgjsTspan1328" style="text-decoration:;">续消息</tspan></tspan></text></g></g><g id="SvgjsG1329"><path id="SvgjsPath1330" d="M334 569.25L334 653L270.1875 653 " stroke="#323232" stroke-width="2" fill="none" marker-end="url(#SvgjsMarker1331)"></path></g><g id="SvgjsG1333" transform="translate(693,385.25)"><path id="SvgjsPath1334" d="M0 35L45 0L90 35L45 70L0 35Z " stroke="rgba(50,50,50,1)" stroke-width="2" fill-opacity="1" fill="#ffffff"></path><g id="SvgjsG1335"><text id="SvgjsText1336" font-family="微软雅黑" text-anchor="middle" font-size="13px" width="70px" fill="#323232" font-weight="400" align="middle" lineHeight="125%" font-style="" opacity="1" y="17.375" transform="rotate(0)"><tspan id="SvgjsTspan1337" dy="16" x="45"><tspan id="SvgjsTspan1338" style="text-decoration:;">是否大于期</tspan></tspan><tspan id="SvgjsTspan1339" dy="16" x="45"><tspan id="SvgjsTspan1340" style="text-decoration:;">望id</tspan></tspan></text></g></g><g id="SvgjsG1341"><path id="SvgjsPath1342" d="M891 420.25L837 420.25L837 420.25L783 420.25 " stroke="#323232" stroke-width="2" fill="none" marker-end="url(#SvgjsMarker1343)"></path><rect id="SvgjsRect1345" width="26" height="16" x="824" y="412.25" fill="#ffffff"></rect><text id="SvgjsText1346" font-family="微软雅黑" text-anchor="middle" font-size="13px" width="26px" fill="#323232" font-weight="400" align="top" lineHeight="16px" font-style="" opacity="1" y="410.625" transform="rotate(0)"><tspan id="SvgjsTspan1347" dy="16" x="837"><tspan id="SvgjsTspan1348" style="text-decoration:;">消息</tspan></tspan></text></g><g id="SvgjsG1349"><path id="SvgjsPath1350" d="M941 455.25L941 485.25L1000 485.25L1000 1075.375L970 1075.375 " stroke="#323232" stroke-width="2" fill="none" marker-end="url(#SvgjsMarker1351)"></path><rect id="SvgjsRect1353" width="78" height="16" x="961.0000000000001" y="742.8125" fill="#ffffff"></rect><text id="SvgjsText1354" font-family="微软雅黑" text-anchor="middle" font-size="13px" width="78px" fill="#323232" font-weight="400" align="top" lineHeight="16px" font-style="" opacity="1" y="741.1875" transform="rotate(0)"><tspan id="SvgjsTspan1355" dy="16" x="1000.0000000000001"><tspan id="SvgjsTspan1356" style="text-decoration:;">重发缺失消息</tspan></tspan></text></g><g id="SvgjsG1357"><path id="SvgjsPath1358" d="M693 420.25L629 420.25L629 420.25L565 420.25 " stroke="#323232" stroke-width="2" fill="none" marker-end="url(#SvgjsMarker1359)"></path><rect id="SvgjsRect1361" width="13" height="16" x="622.5" y="412.25" fill="#ffffff"></rect><text id="SvgjsText1362" font-family="微软雅黑" text-anchor="middle" font-size="13px" width="13px" fill="#323232" font-weight="400" align="top" lineHeight="16px" font-style="" opacity="1" y="410.625" transform="rotate(0)"><tspan id="SvgjsTspan1363" dy="16" x="629"><tspan id="SvgjsTspan1364" style="text-decoration:;">是</tspan></tspan></text></g><g id="SvgjsG1365"><path id="SvgjsPath1366" d="M738 455.25L738 479.75L738 479.75L738 504.25 " stroke="#323232" stroke-width="2" fill="none" marker-end="url(#SvgjsMarker1367)"></path><rect id="SvgjsRect1369" width="13" height="16" x="731.5" y="471.75" fill="#ffffff"></rect><text id="SvgjsText1370" font-family="微软雅黑" text-anchor="middle" font-size="13px" width="13px" fill="#323232" font-weight="400" align="top" lineHeight="16px" font-style="" opacity="1" y="470.125" transform="rotate(0)"><tspan id="SvgjsTspan1371" dy="16" x="738"><tspan id="SvgjsTspan1372" style="text-decoration:;">否</tspan></tspan></text></g><g id="SvgjsG1373"><path id="SvgjsPath1374" d="M220.1875 928L220.1875 984.5L220.25 984.5L220.25 1041 " stroke="#323232" stroke-width="2" fill="none" marker-end="url(#SvgjsMarker1375)"></path><rect id="SvgjsRect1377" width="52" height="16" x="194.21875" y="976.5" fill="#ffffff"></rect><text id="SvgjsText1378" font-family="微软雅黑" text-anchor="middle" font-size="13px" width="52px" fill="#323232" font-weight="400" align="top" lineHeight="16px" font-style="" opacity="1" y="974.875" transform="rotate(0)"><tspan id="SvgjsTspan1379" dy="16" x="220.21875"><tspan id="SvgjsTspan1380" style="text-decoration:;">消息数据</tspan></tspan></text></g><g id="SvgjsG1381" transform="translate(170.25,419.75)"><path id="SvgjsPath1382" d="M0 0L100 0L100 70L0 70Z " stroke="rgba(50,50,50,1)" stroke-width="2" fill-opacity="1" fill="#ffffff"></path><g id="SvgjsG1383"><text id="SvgjsText1384" font-family="微软雅黑" text-anchor="middle" font-size="13px" width="80px" fill="#323232" font-weight="400" align="middle" lineHeight="125%" font-style="" opacity="1" y="9.375" transform="rotate(0)"><tspan id="SvgjsTspan1385" dy="16" x="50"><tspan id="SvgjsTspan1386" style="text-decoration:;">当前消息+消</tspan></tspan><tspan id="SvgjsTspan1387" dy="16" x="50"><tspan id="SvgjsTspan1388" style="text-decoration:;">息列表的后续</tspan></tspan><tspan id="SvgjsTspan1389" dy="16" x="50"><tspan id="SvgjsTspan1390" style="text-decoration:;">完整连续消息</tspan></tspan></text></g></g><g id="SvgjsG1391"><path id="SvgjsPath1392" d="M220.25 489.75L220.25 553.875L220.1875 553.875L220.1875 618 " stroke="#323232" stroke-width="2" fill="none" marker-end="url(#SvgjsMarker1393)"></path></g><g id="SvgjsG1395"><path id="SvgjsPath1396" d="M451.859375 653.25L361.0234375 653.25L361.0234375 653L270.1875 653 " stroke="#323232" stroke-width="2" fill="none" marker-end="url(#SvgjsMarker1397)"></path></g><g id="SvgjsG1399" transform="translate(60.75,184.75)"><path id="SvgjsPath1400" d="M0 0L1211.25 0L1211.25 86.25L0 86.25Z " stroke="none" fill="url(#SvgjsPattern1401)"></path></g><g id="SvgjsG1403" transform="translate(58.9375,68.75)"><path id="SvgjsPath1404" d="M100 0Q91 0 91 9L91 61Q91 70 78 70Q91 70 91 79L91 131Q91 140 100 140 " stroke="rgba(50,50,50,1)" stroke-width="2" fill="none"></path><path id="SvgjsPath1405" d="M0 0L100 0L100 140L0 140Z " stroke="none" fill="none"></path><g id="SvgjsG1406"><text id="SvgjsText1407" font-family="微软雅黑" text-anchor="end" font-size="13px" width="73px" fill="#323232" font-weight="400" align="middle" lineHeight="125%" font-style="" opacity="1" y="60.375" transform="rotate(0)"><tspan id="SvgjsTspan1408" dy="16" x="73"><tspan id="SvgjsTspan1409" style="text-decoration:;">客户端A</tspan></tspan></text></g></g><g id="SvgjsG1410" transform="translate(25,244.25)"><path id="SvgjsPath1411" d="M128.25 0Q119.25 0 119.25 9L119.25 350Q119.25 359 106.25 359Q119.25 359 119.25 368L119.25 709Q119.25 718 128.25 718 " stroke="rgba(50,50,50,1)" stroke-width="2" fill="none"></path><path id="SvgjsPath1412" d="M0 0L128.25 0L128.25 718L0 718Z " stroke="none" fill="none"></path><g id="SvgjsG1413"><text id="SvgjsText1414" font-family="微软雅黑" text-anchor="end" font-size="13px" width="102px" fill="#323232" font-weight="400" align="middle" lineHeight="125%" font-style="" opacity="1" y="349.375" transform="rotate(0)"><tspan id="SvgjsTspan1415" dy="16" x="102"><tspan id="SvgjsTspan1416" style="text-decoration:;">服务端</tspan></tspan></text></g></g><g id="SvgjsG1417" transform="translate(45.125,932.125)"><path id="SvgjsPath1418" d="M0 0L1211.25 0L1211.25 86.25L0 86.25Z " stroke="none" fill="url(#SvgjsPattern1419)"></path></g><g id="SvgjsG1421" transform="translate(170.25,1041)"><path id="SvgjsPath1422" d="M0 0L100 0L100 70L0 70Z " stroke="rgba(50,50,50,1)" stroke-width="2" fill-opacity="1" fill="#ffffff"></path><g id="SvgjsG1423"><text id="SvgjsText1424" font-family="微软雅黑" text-anchor="middle" font-size="13px" width="80px" fill="#323232" font-weight="400" align="middle" lineHeight="125%" font-style="" opacity="1" y="25.375" transform="rotate(0)"><tspan id="SvgjsTspan1425" dy="16" x="50"><tspan id="SvgjsTspan1426" style="text-decoration:;">接收消息</tspan></tspan></text></g></g><g id="SvgjsG1427" transform="translate(506,1045.375)"><path id="SvgjsPath1428" d="M0 0L464 0L464 60L0 60Z " stroke="rgba(50,50,50,1)" stroke-width="2" fill-opacity="1" fill="#ffffff"></path><g id="SvgjsG1429"><text id="SvgjsText1430" font-family="微软雅黑" text-anchor="middle" font-size="13px" width="444px" fill="#323232" font-weight="400" align="middle" lineHeight="125%" font-style="" opacity="1" y="20.375" transform="rotate(0)"><tspan id="SvgjsTspan1431" dy="16" x="232"><tspan id="SvgjsTspan1432" style="text-decoration:;">处理服务端响应</tspan></tspan></text></g></g><g id="SvgjsG1433"><path id="SvgjsPath1434" d="M270.1875 771L388.59375 771L388.59375 1091L507 1091 " stroke="#323232" stroke-width="2" fill="none" marker-end="url(#SvgjsMarker1435)"></path><rect id="SvgjsRect1437" width="117" height="16" x="330.09375" y="923" fill="#ffffff"></rect><text id="SvgjsText1438" font-family="微软雅黑" text-anchor="middle" font-size="13px" width="117px" fill="#323232" font-weight="400" align="top" lineHeight="16px" font-style="" opacity="1" y="921.375" transform="rotate(0)"><tspan id="SvgjsTspan1439" dy="16" x="388.59375"><tspan id="SvgjsTspan1440" style="text-decoration:;">消息发送请求已成功</tspan></tspan></text></g><g id="SvgjsG1441" transform="translate(277.25,1007.125)"><path id="SvgjsPath1442" d="M100 0Q91 0 91 9L91 61Q91 70 78 70Q91 70 91 79L91 131Q91 140 100 140 " stroke="rgba(50,50,50,1)" stroke-width="2" fill="none"></path><path id="SvgjsPath1443" d="M0 0L100 0L100 140L0 140Z " stroke="none" fill="none"></path><g id="SvgjsG1444"><text id="SvgjsText1445" font-family="微软雅黑" text-anchor="end" font-size="13px" width="73px" fill="#323232" font-weight="400" align="middle" lineHeight="125%" font-style="" opacity="1" y="60.375" transform="rotate(0)"><tspan id="SvgjsTspan1446" dy="16" x="73"><tspan id="SvgjsTspan1447" style="text-decoration:;">客户端A</tspan></tspan></text></g></g><g id="SvgjsG1448" transform="translate(49.75,1008.40625)"><path id="SvgjsPath1449" d="M100 0Q91 0 91 9L91 61Q91 70 78 70Q91 70 91 79L91 131Q91 140 100 140 " stroke="rgba(50,50,50,1)" stroke-width="2" fill="none"></path><path id="SvgjsPath1450" d="M0 0L100 0L100 140L0 140Z " stroke="none" fill="none"></path><g id="SvgjsG1451"><text id="SvgjsText1452" font-family="微软雅黑" text-anchor="end" font-size="13px" width="73px" fill="#323232" font-weight="400" align="middle" lineHeight="125%" font-style="" opacity="1" y="60.375" transform="rotate(0)"><tspan id="SvgjsTspan1453" dy="16" x="73"><tspan id="SvgjsTspan1454" style="text-decoration:;">客户端B</tspan></tspan></text></g></g></svg>