<svg id="SvgjsSvg1000" xmlns="http://www.w3.org/2000/svg" version="1.1" xmlns:xlink="http://www.w3.org/1999/xlink" xmlns:svgjs="http://svgjs.com/svgjs" width="1137" height="813.5"><defs id="SvgjsDefs1001"><marker id="SvgjsMarker1023" markerWidth="16" markerHeight="12" refX="16" refY="6" viewBox="0 0 16 12" orient="auto" markerUnits="userSpaceOnUse" stroke-dasharray="0,0"><path id="SvgjsPath1024" d="M0 2L14 6L0 11L0 2 " fill="#323232" stroke="#323232" stroke-width="2"></path></marker><marker id="SvgjsMarker1039" markerWidth="16" markerHeight="12" refX="16" refY="6" viewBox="0 0 16 12" orient="auto" markerUnits="userSpaceOnUse" stroke-dasharray="0,0"><path id="SvgjsPath1040" d="M0 2L14 6L0 11L0 2 " fill="#323232" stroke="#323232" stroke-width="2"></path></marker><marker id="SvgjsMarker1053" markerWidth="16" markerHeight="12" refX="16" refY="6" viewBox="0 0 16 12" orient="auto" markerUnits="userSpaceOnUse" stroke-dasharray="0,0"><path id="SvgjsPath1054" d="M0 2L14 6L0 11L0 2 " fill="#323232" stroke="#323232" stroke-width="2"></path></marker><marker id="SvgjsMarker1061" markerWidth="16" markerHeight="12" refX="16" refY="6" viewBox="0 0 16 12" orient="auto" markerUnits="userSpaceOnUse" stroke-dasharray="0,0"><path id="SvgjsPath1062" d="M0 2L14 6L0 11L0 2 " fill="#323232" stroke="#323232" stroke-width="2"></path></marker><marker id="SvgjsMarker1079" markerWidth="16" markerHeight="12" refX="16" refY="6" viewBox="0 0 16 12" orient="auto" markerUnits="userSpaceOnUse" stroke-dasharray="0,0"><path id="SvgjsPath1080" d="M0 2L14 6L0 11L0 2 " fill="#323232" stroke="#323232" stroke-width="2"></path></marker><marker id="SvgjsMarker1097" markerWidth="16" markerHeight="12" refX="16" refY="6" viewBox="0 0 16 12" orient="auto" markerUnits="userSpaceOnUse" stroke-dasharray="0,0"><path id="SvgjsPath1098" d="M0 2L14 6L0 11L0 2 " fill="#323232" stroke="#323232" stroke-width="2"></path></marker><marker id="SvgjsMarker1113" markerWidth="16" markerHeight="12" refX="16" refY="6" viewBox="0 0 16 12" orient="auto" markerUnits="userSpaceOnUse" stroke-dasharray="0,0"><path id="SvgjsPath1114" d="M0 2L14 6L0 11L0 2 " fill="#323232" stroke="#323232" stroke-width="2"></path></marker><pattern id="SvgjsPattern1121" x="0" y="0" width="1060" height="61" patternUnits="userSpaceOnUse"><image id="SvgjsImage1122" xlink:href="https://img8.file.cache.docer.com/storage/image/8/d/e/9/8/b8e281e9d39d05b2eed352f5971af08f.png/128x128.png" width="1060" height="61" preserveAspectRatio="none" crossOrigin="anonymous" x="0" y="0"></image></pattern><pattern id="SvgjsPattern1125" x="0" y="0" width="1060" height="61" patternUnits="userSpaceOnUse"><image id="SvgjsImage1126" xlink:href="https://img8.file.cache.docer.com/storage/image/8/d/e/9/8/b8e281e9d39d05b2eed352f5971af08f.png/128x128.png" width="1060" height="61" preserveAspectRatio="none" crossOrigin="anonymous" x="0" y="0"></image></pattern><marker id="SvgjsMarker1129" markerWidth="16" markerHeight="12" refX="16" refY="6" viewBox="0 0 16 12" orient="auto" markerUnits="userSpaceOnUse" stroke-dasharray="0,0"><path id="SvgjsPath1130" d="M0 2L14 6L0 11L0 2 " fill="#323232" stroke="#323232" stroke-width="2"></path></marker><marker id="SvgjsMarker1137" markerWidth="16" markerHeight="12" refX="16" refY="6" viewBox="0 0 16 12" orient="auto" markerUnits="userSpaceOnUse" stroke-dasharray="0,0"><path id="SvgjsPath1138" d="M0 2L14 6L0 11L0 2 " fill="#323232" stroke="#323232" stroke-width="2"></path></marker><marker id="SvgjsMarker1183" markerWidth="16" markerHeight="12" refX="16" refY="6" viewBox="0 0 16 12" orient="auto" markerUnits="userSpaceOnUse" stroke-dasharray="0,0"><path id="SvgjsPath1184" d="M0 2L14 6L0 11L0 2 " fill="#323232" stroke="#323232" stroke-width="2"></path></marker><marker id="SvgjsMarker1187" markerWidth="16" markerHeight="12" refX="16" refY="6" viewBox="0 0 16 12" orient="auto" markerUnits="userSpaceOnUse" stroke-dasharray="0,0"><path id="SvgjsPath1188" d="M0 2L14 6L0 11L0 2 " fill="#323232" stroke="#323232" stroke-width="2"></path></marker><marker id="SvgjsMarker1203" markerWidth="16" markerHeight="12" refX="16" refY="6" viewBox="0 0 16 12" orient="auto" markerUnits="userSpaceOnUse" stroke-dasharray="0,0"><path id="SvgjsPath1204" d="M0 2L14 6L0 11L0 2 " fill="#323232" stroke="#323232" stroke-width="2"></path></marker><marker id="SvgjsMarker1207" markerWidth="16" markerHeight="12" refX="16" refY="6" viewBox="0 0 16 12" orient="auto" markerUnits="userSpaceOnUse" stroke-dasharray="0,0"><path id="SvgjsPath1208" d="M0 2L14 6L0 11L0 2 " fill="#323232" stroke="#323232" stroke-width="2"></path></marker><marker id="SvgjsMarker1230" markerWidth="16" markerHeight="12" refX="16" refY="6" viewBox="0 0 16 12" orient="auto" markerUnits="userSpaceOnUse" stroke-dasharray="0,0"><path id="SvgjsPath1231" d="M0 2L14 6L0 11L0 2 " fill="#323232" stroke="#323232" stroke-width="2"></path></marker></defs><g id="SvgjsG1007" transform="translate(812,57)"><path id="SvgjsPath1008" d="M0 0L100 0L100 70L0 70Z " stroke="rgba(50,50,50,1)" stroke-width="2" fill-opacity="1" fill="#ffffff"></path><g id="SvgjsG1009"><text id="SvgjsText1010" font-family="微软雅黑" text-anchor="middle" font-size="13px" width="80px" fill="#323232" font-weight="400" align="middle" lineHeight="125%" font-style="" opacity="1" y="17.375" transform="rotate(0)"><tspan id="SvgjsTspan1011" dy="16" x="50"><tspan id="SvgjsTspan1012" style="text-decoration:;">json格式化</tspan></tspan><tspan id="SvgjsTspan1013" dy="16" x="50"><tspan id="SvgjsTspan1014" style="text-decoration:;">+base64编码</tspan></tspan></text></g></g><g id="SvgjsG1015" transform="translate(812,207)"><path id="SvgjsPath1016" d="M0 0L100 0L100 70L0 70Z " stroke="rgba(50,50,50,1)" stroke-width="2" fill-opacity="1" fill="#ffffff"></path><g id="SvgjsG1017"><text id="SvgjsText1018" font-family="微软雅黑" text-anchor="middle" font-size="13px" width="80px" fill="#323232" font-weight="400" align="middle" lineHeight="125%" font-style="" opacity="1" y="25.375" transform="rotate(0)"><tspan id="SvgjsTspan1019" dy="16" x="50"><tspan id="SvgjsTspan1020" style="text-decoration:;">数据包解析</tspan></tspan></text></g></g><g id="SvgjsG1021"><path id="SvgjsPath1022" d="M862 127L862 167L862 167L862 207 " stroke="#323232" stroke-width="2" fill="none" marker-end="url(#SvgjsMarker1023)"></path><rect id="SvgjsRect1025" width="65" height="16" x="829.5" y="159" fill="#ffffff"></rect><text id="SvgjsText1026" font-family="微软雅黑" text-anchor="middle" font-size="13px" width="65px" fill="#323232" font-weight="400" align="top" lineHeight="16px" font-style="" opacity="1" y="157.375" transform="rotate(0)"><tspan id="SvgjsTspan1027" dy="16" x="862"><tspan id="SvgjsTspan1028" style="text-decoration:;">请求数据包</tspan></tspan></text></g><g id="SvgjsG1029" transform="translate(631,207)"><path id="SvgjsPath1030" d="M0 0L100 0L100 70L0 70Z " stroke="rgba(50,50,50,1)" stroke-width="2" fill-opacity="1" fill="#ffffff"></path><g id="SvgjsG1031"><text id="SvgjsText1032" font-family="微软雅黑" text-anchor="middle" font-size="13px" width="80px" fill="#323232" font-weight="400" align="middle" lineHeight="125%" font-style="" opacity="1" y="17.375" transform="rotate(0)"><tspan id="SvgjsTspan1033" dy="16" x="50"><tspan id="SvgjsTspan1034" style="text-decoration:;">分发给对应函</tspan></tspan><tspan id="SvgjsTspan1035" dy="16" x="50"><tspan id="SvgjsTspan1036" style="text-decoration:;">数处理</tspan></tspan></text></g></g><g id="SvgjsG1037"><path id="SvgjsPath1038" d="M812 242L771.5 242L771.5 242L731 242 " stroke="#323232" stroke-width="2" fill="none" marker-end="url(#SvgjsMarker1039)"></path><rect id="SvgjsRect1041" width="52" height="16" x="745.5" y="234" fill="#ffffff"></rect><text id="SvgjsText1042" font-family="微软雅黑" text-anchor="middle" font-size="13px" width="52px" fill="#323232" font-weight="400" align="top" lineHeight="16px" font-style="" opacity="1" y="232.375" transform="rotate(0)"><tspan id="SvgjsTspan1043" dy="16" x="771.5"><tspan id="SvgjsTspan1044" style="text-decoration:;">参数字典</tspan></tspan></text></g><g id="SvgjsG1045" transform="translate(350,60)"><path id="SvgjsPath1046" d="M0 0L100 0L100 70L0 70Z " stroke="rgba(50,50,50,1)" stroke-width="2" fill-opacity="1" fill="#ffffff"></path><g id="SvgjsG1047"><text id="SvgjsText1048" font-family="微软雅黑" text-anchor="middle" font-size="13px" width="80px" fill="#323232" font-weight="400" align="middle" lineHeight="125%" font-style="" opacity="1" y="25.375" transform="rotate(0)"><tspan id="SvgjsTspan1049" dy="16" x="50"><tspan id="SvgjsTspan1050" style="text-decoration:;">字符串解析</tspan></tspan></text></g></g><g id="SvgjsG1051"><path id="SvgjsPath1052" d="M450 95L507.5 95L507.5 95L565 95 " stroke="#323232" stroke-width="2" fill="none" marker-end="url(#SvgjsMarker1053)"></path><rect id="SvgjsRect1055" width="52" height="16" x="481.5" y="87" fill="#ffffff"></rect><text id="SvgjsText1056" font-family="微软雅黑" text-anchor="middle" font-size="13px" width="52px" fill="#323232" font-weight="400" align="top" lineHeight="16px" font-style="" opacity="1" y="85.375" transform="rotate(0)"><tspan id="SvgjsTspan1057" dy="16" x="507.5"><tspan id="SvgjsTspan1058" style="text-decoration:;">参数字典</tspan></tspan></text></g><g id="SvgjsG1059"><path id="SvgjsPath1060" d="M510 228.25L510 198.25L310 198.25L310 242L280 242 " stroke="#323232" stroke-width="2" fill="none" marker-end="url(#SvgjsMarker1061)"></path><rect id="SvgjsRect1063" width="13" height="16" x="381.625" y="190.25" fill="#ffffff"></rect><text id="SvgjsText1064" font-family="微软雅黑" text-anchor="middle" font-size="13px" width="13px" fill="#323232" font-weight="400" align="top" lineHeight="16px" font-style="" opacity="1" y="188.625" transform="rotate(0)"><tspan id="SvgjsTspan1065" dy="16" x="388.125"><tspan id="SvgjsTspan1066" style="text-decoration:;">否</tspan></tspan></text></g><g id="SvgjsG1067" transform="translate(180,207)"><path id="SvgjsPath1068" d="M0 0L100 0L100 70L0 70Z " stroke="rgba(50,50,50,1)" stroke-width="2" fill-opacity="1" fill="#ffffff"></path><g id="SvgjsG1069"><text id="SvgjsText1070" font-family="微软雅黑" text-anchor="middle" font-size="13px" width="80px" fill="#323232" font-weight="400" align="middle" lineHeight="125%" font-style="" opacity="1" y="9.375" transform="rotate(0)"><tspan id="SvgjsTspan1071" dy="16" x="50"><tspan id="SvgjsTspan1072" style="text-decoration:;">按执行结果，</tspan></tspan><tspan id="SvgjsTspan1073" dy="16" x="50"><tspan id="SvgjsTspan1074" style="text-decoration:;">生成简单的响</tspan></tspan><tspan id="SvgjsTspan1075" dy="16" x="50"><tspan id="SvgjsTspan1076" style="text-decoration:;">应数据</tspan></tspan></text></g></g><g id="SvgjsG1077"><path id="SvgjsPath1078" d="M230 277L230 430.25L301.5 430.25L301.5 583.5 " stroke="#323232" stroke-width="2" fill="none" marker-end="url(#SvgjsMarker1079)"></path><rect id="SvgjsRect1081" width="65" height="16" x="233.25" y="422.25" fill="#ffffff"></rect><text id="SvgjsText1082" font-family="微软雅黑" text-anchor="middle" font-size="13px" width="65px" fill="#323232" font-weight="400" align="top" lineHeight="16px" font-style="" opacity="1" y="420.625" transform="rotate(0)"><tspan id="SvgjsTspan1083" dy="16" x="265.75"><tspan id="SvgjsTspan1084" style="text-decoration:;">响应数据包</tspan></tspan></text></g><g id="SvgjsG1085" transform="translate(251.5,583.5)"><path id="SvgjsPath1086" d="M0 0L100 0L100 70L0 70Z " stroke="rgba(50,50,50,1)" stroke-width="2" fill-opacity="1" fill="#ffffff"></path><g id="SvgjsG1087"><text id="SvgjsText1088" font-family="微软雅黑" text-anchor="middle" font-size="13px" width="80px" fill="#323232" font-weight="400" align="middle" lineHeight="125%" font-style="" opacity="1" y="9.375" transform="rotate(0)"><tspan id="SvgjsTspan1089" dy="16" x="50"><tspan id="SvgjsTspan1090" style="text-decoration:;">用户端解析事</tspan></tspan><tspan id="SvgjsTspan1091" dy="16" x="50"><tspan id="SvgjsTspan1092" style="text-decoration:;">务id和执行结</tspan></tspan><tspan id="SvgjsTspan1093" dy="16" x="50"><tspan id="SvgjsTspan1094" style="text-decoration:;">果</tspan></tspan></text></g></g><g id="SvgjsG1095"><path id="SvgjsPath1096" d="M184 95L267 95L267 95L350 95 " stroke="#323232" stroke-width="2" fill="none" marker-end="url(#SvgjsMarker1097)"></path><rect id="SvgjsRect1099" width="78" height="16" x="228" y="87" fill="#ffffff"></rect><text id="SvgjsText1100" font-family="微软雅黑" text-anchor="middle" font-size="13px" width="78px" fill="#323232" font-weight="400" align="top" lineHeight="16px" font-style="" opacity="1" y="85.375" transform="rotate(0)"><tspan id="SvgjsTspan1101" dy="16" x="267"><tspan id="SvgjsTspan1102" style="text-decoration:;">用户原始输入</tspan></tspan></text></g><g id="SvgjsG1103" transform="translate(565,60)"><path id="SvgjsPath1104" d="M0 0L100 0L100 70L0 70Z " stroke="rgba(50,50,50,1)" stroke-width="2" fill-opacity="1" fill="#ffffff"></path><g id="SvgjsG1105"><text id="SvgjsText1106" font-family="微软雅黑" text-anchor="middle" font-size="13px" width="80px" fill="#323232" font-weight="400" align="middle" lineHeight="125%" font-style="" opacity="1" y="17.375" transform="rotate(0)"><tspan id="SvgjsTspan1107" dy="16" x="50"><tspan id="SvgjsTspan1108" style="text-decoration:;">补充、检查参</tspan></tspan><tspan id="SvgjsTspan1109" dy="16" x="50"><tspan id="SvgjsTspan1110" style="text-decoration:;">数</tspan></tspan></text></g></g><g id="SvgjsG1111"><path id="SvgjsPath1112" d="M665 95L738.5 95L738.5 92L812 92 " stroke="#323232" stroke-width="2" fill="none" marker-end="url(#SvgjsMarker1113)"></path><rect id="SvgjsRect1115" width="52" height="16" x="712.5" y="85.5" fill="#ffffff"></rect><text id="SvgjsText1116" font-family="微软雅黑" text-anchor="middle" font-size="13px" width="52px" fill="#323232" font-weight="400" align="top" lineHeight="16px" font-style="" opacity="1" y="83.875" transform="rotate(0)"><tspan id="SvgjsTspan1117" dy="16" x="738.5"><tspan id="SvgjsTspan1118" style="text-decoration:;">参数字典</tspan></tspan></text></g><g id="SvgjsG1119" transform="translate(25,153)"><path id="SvgjsPath1120" d="M0 0L1060 0L1060 61L0 61Z " stroke="none" fill="url(#SvgjsPattern1121)"></path></g><g id="SvgjsG1123" transform="translate(52,520)"><path id="SvgjsPath1124" d="M0 0L1060 0L1060 61L0 61Z " stroke="none" fill="url(#SvgjsPattern1125)"></path></g><g id="SvgjsG1127"><path id="SvgjsPath1128" d="M251.5 618.5L214.5 618.5L214.5 707 " stroke="#323232" stroke-width="2" fill="none" marker-end="url(#SvgjsMarker1129)"></path><rect id="SvgjsRect1131" width="52" height="16" x="188.5" y="636.25" fill="#ffffff"></rect><text id="SvgjsText1132" font-family="微软雅黑" text-anchor="middle" font-size="13px" width="52px" fill="#323232" font-weight="400" align="top" lineHeight="16px" font-style="" opacity="1" y="634.625" transform="rotate(0)"><tspan id="SvgjsTspan1133" dy="16" x="214.5"><tspan id="SvgjsTspan1134" style="text-decoration:;">终端打印</tspan></tspan></text></g><g id="SvgjsG1135"><path id="SvgjsPath1136" d="M301.5 653.5L301.5 708.25L305.5 708.25L305.5 763 " stroke="#323232" stroke-width="2" fill="none" marker-end="url(#SvgjsMarker1137)"></path><rect id="SvgjsRect1139" width="52" height="16" x="277.5" y="700.25" fill="#ffffff"></rect><text id="SvgjsText1140" font-family="微软雅黑" text-anchor="middle" font-size="13px" width="52px" fill="#323232" font-weight="400" align="top" lineHeight="16px" font-style="" opacity="1" y="698.625" transform="rotate(0)"><tspan id="SvgjsTspan1141" dy="16" x="303.5"><tspan id="SvgjsTspan1142" style="text-decoration:;">日志记录</tspan></tspan></text></g><g id="SvgjsG1143" transform="translate(67,25)"><path id="SvgjsPath1144" d="M100 0Q91 0 91 9L91 61Q91 70 78 70Q91 70 91 79L91 131Q91 140 100 140 " stroke="rgba(50,50,50,1)" stroke-width="2" fill="none"></path><path id="SvgjsPath1145" d="M0 0L100 0L100 140L0 140Z " stroke="none" fill="none"></path><g id="SvgjsG1146"><text id="SvgjsText1147" font-family="微软雅黑" text-anchor="end" font-size="13px" width="73px" fill="#323232" font-weight="400" align="middle" lineHeight="125%" font-style="" opacity="1" y="60.375" transform="rotate(0)"><tspan id="SvgjsTspan1148" dy="16" x="73"><tspan id="SvgjsTspan1149" style="text-decoration:;">客户端A</tspan></tspan></text></g></g><g id="SvgjsG1150" transform="translate(75,187)"><path id="SvgjsPath1151" d="M102 0Q93 0 93 9L93 168.75Q93 177.75 80 177.75Q93 177.75 93 186.75L93 346.5Q93 355.5 102 355.5 " stroke="rgba(50,50,50,1)" stroke-width="2" fill="none"></path><path id="SvgjsPath1152" d="M0 0L102 0L102 355.5L0 355.5Z " stroke="none" fill="none"></path><g id="SvgjsG1153"><text id="SvgjsText1154" font-family="微软雅黑" text-anchor="end" font-size="13px" width="75px" fill="#323232" font-weight="400" align="middle" lineHeight="125%" font-style="" opacity="1" y="168.125" transform="rotate(0)"><tspan id="SvgjsTspan1155" dy="16" x="75"><tspan id="SvgjsTspan1156" style="text-decoration:;">服务端</tspan></tspan></text></g></g><g id="SvgjsG1157" transform="translate(80,583.5)"><path id="SvgjsPath1158" d="M100 0Q91 0 91 9L91 93.25Q91 102.25 78 102.25Q91 102.25 91 111.25L91 195.5Q91 204.5 100 204.5 " stroke="rgba(50,50,50,1)" stroke-width="2" fill="none"></path><path id="SvgjsPath1159" d="M0 0L100 0L100 204.5L0 204.5Z " stroke="none" fill="none"></path><g id="SvgjsG1160"><text id="SvgjsText1161" font-family="微软雅黑" text-anchor="end" font-size="13px" width="73px" fill="#323232" font-weight="400" align="middle" lineHeight="125%" font-style="" opacity="1" y="92.625" transform="rotate(0)"><tspan id="SvgjsTspan1162" dy="16" x="73"><tspan id="SvgjsTspan1163" style="text-decoration:;">客户端A</tspan></tspan></text></g></g><g id="SvgjsG1164" transform="translate(363.5,581)"><path id="SvgjsPath1165" d="M0 0L100 0L100 70L0 70Z " stroke="rgba(50,50,50,1)" stroke-width="2" fill-opacity="1" fill="#ffffff"></path><g id="SvgjsG1166"><text id="SvgjsText1167" font-family="微软雅黑" text-anchor="middle" font-size="13px" width="80px" fill="#323232" font-weight="400" align="middle" lineHeight="125%" font-style="" opacity="1" y="17.375" transform="rotate(0)"><tspan id="SvgjsTspan1168" dy="16" x="50"><tspan id="SvgjsTspan1169" style="text-decoration:;">用户端处理所</tspan></tspan><tspan id="SvgjsTspan1170" dy="16" x="50"><tspan id="SvgjsTspan1171" style="text-decoration:;">需数据</tspan></tspan></text></g></g><g id="SvgjsG1172" transform="translate(433.5,228.25)"><path id="SvgjsPath1173" d="M0 51.75L76.5 0L153 51.75L76.5 103.5L0 51.75Z " stroke="rgba(50,50,50,1)" stroke-width="2" fill-opacity="1" fill="#ffffff"></path><g id="SvgjsG1174"><text id="SvgjsText1175" font-family="微软雅黑" text-anchor="middle" font-size="13px" width="133px" fill="#323232" font-weight="400" align="middle" lineHeight="125%" font-style="" opacity="1" y="34.125" transform="rotate(0)"><tspan id="SvgjsTspan1176" dy="16" x="76.5"><tspan id="SvgjsTspan1177" style="text-decoration:;">处理过程中</tspan><tspan id="SvgjsTspan1178" style="text-decoration:;font-size: inherit;">需要发送其</tspan></tspan><tspan id="SvgjsTspan1179" dy="16" x="76.5"><tspan id="SvgjsTspan1180" style="text-decoration:;font-size: inherit;">他信息？</tspan></tspan></text></g></g><g id="SvgjsG1181"><path id="SvgjsPath1182" d="M631 242L608.75 242L608.75 280L586.5 280 " stroke="#323232" stroke-width="2" fill="none" marker-end="url(#SvgjsMarker1183)"></path></g><g id="SvgjsG1185"><path id="SvgjsPath1186" d="M510 331.75L510 347.875L510 347.875L510 364 " stroke="#323232" stroke-width="2" fill="none" marker-end="url(#SvgjsMarker1187)"></path><rect id="SvgjsRect1189" width="13" height="16" x="503.5" y="339.875" fill="#ffffff"></rect><text id="SvgjsText1190" font-family="微软雅黑" text-anchor="middle" font-size="13px" width="13px" fill="#323232" font-weight="400" align="top" lineHeight="16px" font-style="" opacity="1" y="338.25" transform="rotate(0)"><tspan id="SvgjsTspan1191" dy="16" x="510"><tspan id="SvgjsTspan1192" style="text-decoration:;">是</tspan></tspan></text></g><g id="SvgjsG1193" transform="translate(460,364)"><path id="SvgjsPath1194" d="M0 0L100 0L100 70L0 70Z " stroke="rgba(50,50,50,1)" stroke-width="2" fill-opacity="1" fill="#ffffff"></path><g id="SvgjsG1195"><text id="SvgjsText1196" font-family="微软雅黑" text-anchor="middle" font-size="13px" width="80px" fill="#323232" font-weight="400" align="middle" lineHeight="125%" font-style="" opacity="1" y="17.375" transform="rotate(0)"><tspan id="SvgjsTspan1197" dy="16" x="50"><tspan id="SvgjsTspan1198" style="text-decoration:;">生成其他信息</tspan></tspan><tspan id="SvgjsTspan1199" dy="16" x="50"><tspan id="SvgjsTspan1200" style="text-decoration:;">数据包</tspan></tspan></text></g></g><g id="SvgjsG1201"><path id="SvgjsPath1202" d="M460 399L370 399L370 242L280 242 " stroke="#323232" stroke-width="2" fill="none" marker-end="url(#SvgjsMarker1203)"></path></g><g id="SvgjsG1205"><path id="SvgjsPath1206" d="M510 434L510 507.5L413.5 507.5L413.5 581 " stroke="#323232" stroke-width="2" fill="none" marker-end="url(#SvgjsMarker1207)"></path><rect id="SvgjsRect1209" width="65" height="16" x="429.25" y="499.5" fill="#ffffff"></rect><text id="SvgjsText1210" font-family="微软雅黑" text-anchor="middle" font-size="13px" width="65px" fill="#323232" font-weight="400" align="top" lineHeight="16px" font-style="" opacity="1" y="497.875" transform="rotate(0)"><tspan id="SvgjsTspan1211" dy="16" x="461.75"><tspan id="SvgjsTspan1212" style="text-decoration:;">响应数据包</tspan></tspan></text></g><g id="SvgjsG1213" transform="translate(469.5,581)"><path id="SvgjsPath1214" d="M100 0Q91 0 91 9L91 93.25Q91 102.25 78 102.25Q91 102.25 91 111.25L91 195.5Q91 204.5 100 204.5 " stroke="rgba(50,50,50,1)" stroke-width="2" fill="none"></path><path id="SvgjsPath1215" d="M0 0L100 0L100 204.5L0 204.5Z " stroke="none" fill="none"></path><g id="SvgjsG1216"><text id="SvgjsText1217" font-family="微软雅黑" text-anchor="end" font-size="13px" width="73px" fill="#323232" font-weight="400" align="middle" lineHeight="125%" font-style="" opacity="1" y="92.625" transform="rotate(0)"><tspan id="SvgjsTspan1218" dy="16" x="73"><tspan id="SvgjsTspan1219" style="text-decoration:;">客户端B</tspan></tspan></text></g></g><g id="SvgjsG1220" transform="translate(580.5,581)"><path id="SvgjsPath1221" d="M0 0L100 0L100 70L0 70Z " stroke="rgba(50,50,50,1)" stroke-width="2" fill-opacity="1" fill="#ffffff"></path><g id="SvgjsG1222"><text id="SvgjsText1223" font-family="微软雅黑" text-anchor="middle" font-size="13px" width="80px" fill="#323232" font-weight="400" align="middle" lineHeight="125%" font-style="" opacity="1" y="17.375" transform="rotate(0)"><tspan id="SvgjsTspan1224" dy="16" x="50"><tspan id="SvgjsTspan1225" style="text-decoration:;">用户端处理所</tspan></tspan><tspan id="SvgjsTspan1226" dy="16" x="50"><tspan id="SvgjsTspan1227" style="text-decoration:;">需数据</tspan></tspan></text></g></g><g id="SvgjsG1228"><path id="SvgjsPath1229" d="M510 434L510 507.5L630.5 507.5L630.5 581 " stroke="#323232" stroke-width="2" fill="none" marker-end="url(#SvgjsMarker1230)"></path><rect id="SvgjsRect1232" width="65" height="16" x="537.75" y="499.5" fill="#ffffff"></rect><text id="SvgjsText1233" font-family="微软雅黑" text-anchor="middle" font-size="13px" width="65px" fill="#323232" font-weight="400" align="top" lineHeight="16px" font-style="" opacity="1" y="497.875" transform="rotate(0)"><tspan id="SvgjsTspan1234" dy="16" x="570.25"><tspan id="SvgjsTspan1235" style="text-decoration:;">响应数据包</tspan></tspan></text></g></svg>